<svg xmlns="http://www.w3.org/2000/svg" xmlns:xlink="http://www.w3.org/1999/xlink" id="Layer_1" x="0px" y="0px" viewBox="0 0 1088 200" style="enable-background:new 0 0 1088 200;" xml:space="preserve"><style type="text/css">	.st0{fill:url(#SVGID_1_);stroke:url(#SVGID_00000173156986728585792200000016721922011767812736_);stroke-miterlimit:10;}			.st1{fill:url(#SVGID_00000024680314513308610160000009138547436423640760_);stroke:url(#SVGID_00000156573316815089351130000006992647910727599780_);stroke-miterlimit:10;}			.st2{fill:url(#SVGID_00000172403392959527526480000009923222717885684882_);stroke:url(#SVGID_00000176011162575303901040000005333138286133578655_);stroke-miterlimit:10;}			.st3{fill:url(#SVGID_00000054954129841211778640000006360388821625107374_);stroke:url(#SVGID_00000173135113137574484790000009453579302612058755_);stroke-miterlimit:10;}			.st4{fill:url(#SVGID_00000034791512790356957800000004826981095953554817_);stroke:url(#SVGID_00000134236385556218214110000015789175807308453564_);stroke-miterlimit:10;}			.st5{fill:url(#SVGID_00000148638969356175390280000001350917214008121237_);stroke:url(#SVGID_00000018206608813557576250000008267534274203125949_);stroke-miterlimit:10;}	.st6{fill:#333333;}</style><g>	<g>		<linearGradient id="SVGID_1_" gradientUnits="userSpaceOnUse" x1="139.1494" y1="62.1447" x2="103.0146" y2="117.5589">			<stop offset="0" style="stop-color:#F5991E"></stop>			<stop offset="0.2125" style="stop-color:#F3881F"></stop>			<stop offset="0.5291" style="stop-color:#EF6722"></stop>			<stop offset="0.6217" style="stop-color:#F27D20"></stop>			<stop offset="0.725" style="stop-color:#F48D1F"></stop>			<stop offset="0.842" style="stop-color:#F5961E"></stop>			<stop offset="1" style="stop-color:#F5991E"></stop>		</linearGradient>					<linearGradient id="SVGID_00000021801472520084970970000016937402050373365127_" gradientUnits="userSpaceOnUse" x1="1298.4972" y1="-1715.0033" x2="1033.491" y2="-1308.6051">			<stop offset="0" style="stop-color:#F5991E"></stop>			<stop offset="0.2125" style="stop-color:#F3881F"></stop>			<stop offset="0.5291" style="stop-color:#EF6722"></stop>			<stop offset="0.6217" style="stop-color:#F27D20"></stop>			<stop offset="0.725" style="stop-color:#F48D1F"></stop>			<stop offset="0.842" style="stop-color:#F5961E"></stop>			<stop offset="1" style="stop-color:#F5991E"></stop>		</linearGradient>					<path style="fill:url(#SVGID_1_);stroke:url(#SVGID_00000021801472520084970970000016937402050373365127_);stroke-miterlimit:10;" d="   M75.34,36.39c0,0,10.29,11.58,16.73,14.15c6.43,2.57,50.18,24.45,50.18,24.45s34.74,11.58,34.74,52.75c0,0-7.72-6.43-32.17-16.73   L99.78,90.43c0,0-20.59-9.01-20.59-32.17C79.2,58.26,79.2,41.54,75.34,36.39z"></path>					<linearGradient id="SVGID_00000088106259743556068280000013501237504706276279_" gradientUnits="userSpaceOnUse" x1="83.0567" y1="40.8934" x2="143.5288" y2="40.8934">			<stop offset="0" style="stop-color:#F5991E"></stop>			<stop offset="0.2125" style="stop-color:#F3881F"></stop>			<stop offset="0.5291" style="stop-color:#EF6722"></stop>			<stop offset="0.6217" style="stop-color:#F27D20"></stop>			<stop offset="0.725" style="stop-color:#F48D1F"></stop>			<stop offset="0.842" style="stop-color:#F5961E"></stop>			<stop offset="1" style="stop-color:#F5991E"></stop>		</linearGradient>					<linearGradient id="SVGID_00000007398766951299187350000010364420801548199350_" gradientUnits="userSpaceOnUse" x1="82.6631" y1="41.2426" x2="144.0288" y2="41.2426">			<stop offset="0" style="stop-color:#F5991E"></stop>			<stop offset="0.2125" style="stop-color:#F3881F"></stop>			<stop offset="0.5291" style="stop-color:#EF6722"></stop>			<stop offset="0.6217" style="stop-color:#F27D20"></stop>			<stop offset="0.725" style="stop-color:#F48D1F"></stop>			<stop offset="0.842" style="stop-color:#F5961E"></stop>			<stop offset="1" style="stop-color:#F5991E"></stop>		</linearGradient>					<path style="fill:url(#SVGID_00000088106259743556068280000013501237504706276279_);stroke:url(#SVGID_00000007398766951299187350000010364420801548199350_);stroke-miterlimit:10;" d="   M83.06,14.88c0,0,6.12,6.6,9.95,8.06c3.83,1.47,29.85,13.93,29.85,13.93s20.67,6.6,20.67,30.05c0,0-4.59-3.66-19.14-9.53   L97.6,45.66c0,0-12.25-5.13-12.25-18.32C85.35,27.33,85.35,17.81,83.06,14.88z"></path>					<linearGradient id="SVGID_00000055678073867958659090000010512869172202148030_" gradientUnits="userSpaceOnUse" x1="147.0729" y1="167.2505" x2="79.8855" y2="142.9319">			<stop offset="0" style="stop-color:#F5991E"></stop>			<stop offset="0.2125" style="stop-color:#F3881F"></stop>			<stop offset="0.5291" style="stop-color:#EF6722"></stop>			<stop offset="0.6217" style="stop-color:#F27D20"></stop>			<stop offset="0.725" style="stop-color:#F48D1F"></stop>			<stop offset="0.842" style="stop-color:#F5961E"></stop>			<stop offset="1" style="stop-color:#F5991E"></stop>		</linearGradient>					<linearGradient id="SVGID_00000028321822391014923590000000897410425848017831_" gradientUnits="userSpaceOnUse" x1="48.4774" y1="152.9813" x2="178.7732" y2="152.9813">			<stop offset="0" style="stop-color:#F5991E"></stop>			<stop offset="0.2125" style="stop-color:#F3881F"></stop>			<stop offset="0.5291" style="stop-color:#EF6722"></stop>			<stop offset="0.6217" style="stop-color:#F27D20"></stop>			<stop offset="0.725" style="stop-color:#F48D1F"></stop>			<stop offset="0.842" style="stop-color:#F5961E"></stop>			<stop offset="1" style="stop-color:#F5991E"></stop>		</linearGradient>					<path style="fill:url(#SVGID_00000055678073867958659090000010512869172202148030_);stroke:url(#SVGID_00000028321822391014923590000000897410425848017831_);stroke-miterlimit:10;" d="   M178.66,132.36c0,0-15.11,3.45-20.46,7.84c-5.35,4.4-45.59,32.21-45.59,32.21s-26.88,24.87-62.96,5.04c0,0,9.36-3.67,30.15-20.14   l39.73-29.55c0,0,17.81-13.71,38.1-2.55C157.63,125.21,172.29,133.26,178.66,132.36z"></path>					<linearGradient id="SVGID_00000003811558449267991690000000501572865425492880_" gradientUnits="userSpaceOnUse" x1="119.0757" y1="162.3735" x2="193.8006" y2="162.3735">			<stop offset="0" style="stop-color:#F5991E"></stop>			<stop offset="0.2125" style="stop-color:#F3881F"></stop>			<stop offset="0.5291" style="stop-color:#EF6722"></stop>			<stop offset="0.6217" style="stop-color:#F27D20"></stop>			<stop offset="0.725" style="stop-color:#F48D1F"></stop>			<stop offset="0.842" style="stop-color:#F5961E"></stop>			<stop offset="1" style="stop-color:#F5991E"></stop>		</linearGradient>					<linearGradient id="SVGID_00000036930296404228420080000012249752678849297834_" gradientUnits="userSpaceOnUse" x1="117.9247" y1="162.3735" x2="193.9223" y2="162.3735">			<stop offset="0" style="stop-color:#F5991E"></stop>			<stop offset="0.2125" style="stop-color:#F3881F"></stop>			<stop offset="0.5291" style="stop-color:#EF6722"></stop>			<stop offset="0.6217" style="stop-color:#F27D20"></stop>			<stop offset="0.725" style="stop-color:#F48D1F"></stop>			<stop offset="0.842" style="stop-color:#F5961E"></stop>			<stop offset="1" style="stop-color:#F5991E"></stop>		</linearGradient>					<path style="fill:url(#SVGID_00000003811558449267991690000000501572865425492880_);stroke:url(#SVGID_00000036930296404228420080000012249752678849297834_);stroke-miterlimit:10;" d="   M193.8,149.49c0,0-8.73,2.19-11.86,4.84c-3.13,2.65-26.58,19.46-26.58,19.46s-15.73,14.94-36.29,3.64c0,0,5.42-2.26,17.57-12.18   l23.18-17.83c0,0,10.39-8.26,21.96-1.91C181.78,145.5,190.13,150.09,193.8,149.49z"></path>					<linearGradient id="SVGID_00000091017531120227307230000009009177985657592755_" gradientUnits="userSpaceOnUse" x1="38.8519" y1="106.8116" x2="75.4433" y2="106.8116">			<stop offset="0" style="stop-color:#F5991E"></stop>			<stop offset="0.2125" style="stop-color:#F3881F"></stop>			<stop offset="0.5291" style="stop-color:#EF6722"></stop>			<stop offset="0.6217" style="stop-color:#F27D20"></stop>			<stop offset="0.725" style="stop-color:#F48D1F"></stop>			<stop offset="0.842" style="stop-color:#F5961E"></stop>			<stop offset="1" style="stop-color:#F5991E"></stop>		</linearGradient>					<linearGradient id="SVGID_00000033364377795154345410000003944674087527264952_" gradientUnits="userSpaceOnUse" x1="38.3519" y1="106.4088" x2="75.9433" y2="106.4088">			<stop offset="0" style="stop-color:#F5991E"></stop>			<stop offset="0.2125" style="stop-color:#F3881F"></stop>			<stop offset="0.5291" style="stop-color:#EF6722"></stop>			<stop offset="0.6217" style="stop-color:#F27D20"></stop>			<stop offset="0.725" style="stop-color:#F48D1F"></stop>			<stop offset="0.842" style="stop-color:#F5961E"></stop>			<stop offset="1" style="stop-color:#F5991E"></stop>		</linearGradient>					<path style="fill:url(#SVGID_00000091017531120227307230000009009177985657592755_);stroke:url(#SVGID_00000033364377795154345410000003944674087527264952_);stroke-miterlimit:10;" d="   M42.21,174.08c0,0,4.42-14.85,3.21-21.67c-1.2-6.82-5.67-55.53-5.67-55.53s-8.47-35.63,26.52-57.33c0,0-1.4,9.95,2.74,36.15   l6.24,49.12c0,0,3.2,22.24-16.49,34.45C58.76,159.27,44.55,168.08,42.21,174.08z"></path>					<linearGradient id="SVGID_00000129204850119485258270000011390829376818960521_" gradientUnits="userSpaceOnUse" x1="19.5032" y1="140.7319" x2="41.0807" y2="140.7319">			<stop offset="0" style="stop-color:#F5991E"></stop>			<stop offset="0.2125" style="stop-color:#F3881F"></stop>			<stop offset="0.5291" style="stop-color:#EF6722"></stop>			<stop offset="0.6217" style="stop-color:#F27D20"></stop>			<stop offset="0.725" style="stop-color:#F48D1F"></stop>			<stop offset="0.842" style="stop-color:#F5961E"></stop>			<stop offset="1" style="stop-color:#F5991E"></stop>		</linearGradient>					<linearGradient id="SVGID_00000057849057734065826220000000726440121236643768_" gradientUnits="userSpaceOnUse" x1="19.0032" y1="140.3318" x2="41.5807" y2="140.3318">			<stop offset="0" style="stop-color:#F5991E"></stop>			<stop offset="0.2125" style="stop-color:#F3881F"></stop>			<stop offset="0.5291" style="stop-color:#EF6722"></stop>			<stop offset="0.6217" style="stop-color:#F27D20"></stop>			<stop offset="0.725" style="stop-color:#F48D1F"></stop>			<stop offset="0.842" style="stop-color:#F5961E"></stop>			<stop offset="1" style="stop-color:#F5991E"></stop>		</linearGradient>					<path style="fill:url(#SVGID_00000129204850119485258270000011390829376818960521_);stroke:url(#SVGID_00000057849057734065826220000000726440121236643768_);stroke-miterlimit:10;" d="   M22.43,180.14c0,0,2.38-8.68,1.61-12.71c-0.77-4.03-3.9-32.71-3.9-32.71s-5.29-21.04,14.64-33.4c0,0-0.69,5.83,1.99,21.28   l4.15,28.95c0,0,2.09,13.11-9.12,20.06C31.81,171.62,23.71,176.64,22.43,180.14z"></path>	</g>	<g>		<path class="st6" d="M248.27,77.2c7.34,4.32,15.07,8.54,15.07,18.19c0,9.25-6.73,16.98-20.4,16.98c-4.52,0-8.44-0.8-13.67-3.42   c-0.7-0.4-0.8-1-0.9-1.91l-1.51-13.06c-0.2-0.6,1-0.7,1.11-0.2c1.11,7.94,6.23,17.18,17.18,17.18c6.23,0,12.66-3.01,12.66-12.06   c0-9.75-7.34-13.97-14.67-18.29c-7.14-4.22-14.27-8.34-14.27-17.79c0-10.45,9.04-15.58,18.09-15.58c3.42,0,7.24,0.7,11.46,2.41   c1,0.4,1.51,1,1.51,1.71l0.9,10.65c0,0.6-1.11,0.6-1.21,0c-0.5-5.83-4.32-13.47-13.97-13.47c-8.74,0-11.66,6.23-11.66,11.96   C234,69.06,241.03,72.98,248.27,77.2z"></path>		<path class="st6" d="M337.81,111.17h-11.66c-3.52,0-13.67-12.46-27.03-32.76c-1.91,0.5-4.02,0.8-6.13,0.8   c-1.21,0-3.01-0.1-4.32-0.2v24.02c0,5.83,1.21,6.93,8.94,6.93c0.4,0,0.4,1.21,0,1.21c-3.22,0-7.03-0.2-11.66-0.2   c-4.32,0-8.44,0.2-11.66,0.2c-0.3,0-0.3-1.21,0-1.21c7.64,0,9.14-1.11,9.14-6.93V56.5c0-5.73-1.31-6.93-8.94-6.93   c-0.4,0-0.4-1.21,0-1.21c3.12,0,7.13,0.3,11.46,0.3c3.42,0,8.74-0.6,11.76-0.6c10.75,0,16.38,4.82,16.38,12.56   c0,6.53-4.12,12.56-10.25,15.88c16.98,25.02,25.23,33.47,33.97,33.47C338.21,109.96,338.21,111.17,337.81,111.17z M294.7,77   c9.75,0,13.77-3.82,13.77-12.96c0-10.85-5.73-14.67-13.06-14.67c-4.92,0-6.73,0.2-6.73,7.34v19.9C290.58,76.8,292.89,77,294.7,77z   "></path>		<path class="st6" d="M366.15,109.96c0.3,0,0.3,1.21,0,1.21c-3.22,0-7.04-0.2-11.76-0.2c-4.42,0-8.44,0.2-11.66,0.2   c-0.4,0-0.4-1.21,0-1.21c7.64,0,9.04-1.11,9.04-6.93V56.5c0-5.73-1.41-6.93-9.04-6.93c-0.4,0-0.4-1.21,0-1.21   c3.22,0,7.24,0.3,11.66,0.3c4.72,0,8.64-0.3,11.76-0.3c0.3,0,0.3,1.21,0,1.21c-7.64,0-8.94,1.41-8.94,7.14v46.33   C357.21,108.86,358.41,109.96,366.15,109.96z"></path>		<path class="st6" d="M449.26,77.2c7.34,4.32,15.07,8.54,15.07,18.19c0,9.25-6.73,16.98-20.4,16.98c-4.52,0-8.44-0.8-13.67-3.42   c-0.7-0.4-0.8-1-0.9-1.91l-1.51-13.06c-0.2-0.6,1-0.7,1.11-0.2c1.11,7.94,6.23,17.18,17.18,17.18c6.23,0,12.66-3.01,12.66-12.06   c0-9.75-7.34-13.97-14.67-18.29c-7.14-4.22-14.27-8.34-14.27-17.79c0-10.45,9.04-15.58,18.09-15.58c3.42,0,7.24,0.7,11.46,2.41   c1,0.4,1.51,1,1.51,1.71l0.9,10.65c0,0.6-1.11,0.6-1.21,0c-0.5-5.83-4.32-13.47-13.97-13.47c-8.74,0-11.66,6.23-11.66,11.96   C434.99,69.06,442.02,72.98,449.26,77.2z"></path>		<path class="st6" d="M543.22,111.17c-3.12,0-7.24-0.2-11.56-0.2c-4.62,0-8.54,0.2-11.66,0.2c-0.4,0-0.4-1.21,0-1.21   c7.74,0,8.94-1.11,8.94-6.93V79.41h-40.1v23.62c0,5.83,1.21,6.93,8.94,6.93c0.3,0,0.3,1.21,0,1.21c-3.22,0-7.04-0.2-11.66-0.2   c-4.32,0-8.44,0.2-11.66,0.2c-0.3,0-0.3-1.21,0-1.21c7.64,0,9.04-1.11,9.04-6.93V56.5c0-5.73-1.31-6.93-8.94-6.93   c-0.3,0-0.3-1.21,0-1.21c3.22,0,7.24,0.3,11.56,0.3c4.62,0,8.54-0.3,11.66-0.3c0.3,0,0.3,1.21,0,1.21c-7.64,0-8.94,1.41-8.94,7.14   v20.8h40.1V56.7c0-5.73-1.21-7.14-8.94-7.14c-0.4,0-0.4-1.21,0-1.21c3.12,0,7.04,0.3,11.66,0.3c4.32,0,8.44-0.3,11.56-0.3   c0.4,0,0.4,1.21,0,1.21c-7.64,0-9.05,1.21-9.05,6.93v46.53c0,5.83,1.41,6.93,9.05,6.93C543.63,109.96,543.63,111.17,543.22,111.17   z"></path>		<path class="st6" d="M617.79,111.17c-3.72,0-7.84-0.4-11.46-0.4c-4.12,0-6.73,0.4-10.35,0.4c-0.6,0-0.6-1.21,0-1.21   c7.54,0,9.14-1.61,6.63-7.24L590.66,77.1h-19.19l-9.04,21.71c-3.42,8.24-0.6,11.16,8.54,11.16c0.6,0,0.6,1.21,0,1.21   c-4.02,0-6.73-0.4-11.86-0.4c-4.72,0-6.83,0.4-10.85,0.4c-0.6,0-0.6-1.21,0-1.21c5.43,0,8.24-2.41,12.26-12.06l21-50.55   c0.2-0.4,1.11-0.4,1.21,0l23.32,50.05c4.62,10.15,7.24,12.56,11.76,12.56C618.29,109.96,618.29,111.17,617.79,111.17z    M589.86,75.19l-9.35-19.9l-8.24,19.9H589.86z"></path>		<path class="st6" d="M689.45,49.57c-5.73,0-7.84,2.51-7.84,9.35v53.36c0,0.3-0.91,0.4-1.21,0.2L634.98,56.6   c-0.6-0.7-1.21-1.41-1.71-1.91v46.03c0,6.83,2.01,9.25,7.64,9.25c0.4,0,0.4,1.21,0,1.21c-2.51,0-5.23-0.2-8.54-0.2   c-3.22,0-6.23,0.2-8.84,0.2c-0.3,0-0.3-1.21,0-1.21c5.83,0,7.54-2.41,7.54-9.25V52.58c-2.71-2.31-5.02-3.02-7.23-3.02   c-0.4,0-0.4-1.21,0-1.21c2.21,0,4.82,0.2,6.73,0.2s3.72-0.2,4.52-0.2c1.71,0,1.51,1.41,4.62,5.23l39.7,49.34V58.91   c0-6.83-1.81-9.35-7.44-9.35c-0.3,0-0.3-1.21,0-1.21c2.61,0,5.33,0.3,8.64,0.3c3.12,0,6.33-0.3,8.84-0.3   C689.85,48.36,689.85,49.57,689.45,49.57z"></path>		<path class="st6" d="M774.17,111.17c-3.22,0-7.23-0.2-11.66-0.2c-4.12,0-7.64,0.2-10.45,0.2c-0.3,0-0.3-1.21,0-1.21   c6.73,0,8.04-1.11,7.74-6.93l-1.71-46.73l-23.52,54.17c-0.2,0.5-1.41,0.5-1.71,0L708.34,56.7c0-0.1-0.1-0.1-0.1-0.2l-0.8,44.22   c-0.1,6.83,1.71,9.25,8.44,9.25c0.3,0,0.3,1.21,0,1.21c-2.91,0-6.03-0.2-9.75-0.2c-3.22,0-6.23,0.2-8.84,0.2   c-0.3,0-0.3-1.21,0-1.21c5.63,0,7.74-2.41,7.84-9.25l1.01-47.64c-2.11-2.41-4.72-3.52-8.14-3.52c-0.3,0-0.3-1.21,0-1.21   c2.01,0,4.52,0.2,6.03,0.2c1.81,0,3.62-0.2,4.42-0.2c1.81,0,2.51,0.7,4.62,5.23l22.61,48.84l22.51-51.55   c0.7-1.51,1.91-2.51,3.01-2.51c0.6,0,2.01,0.2,3.82,0.2c3.42,0,5.23-0.2,7.64-0.2c0.3,0,0.3,1.21,0,1.21   c-6.53,0-9.65,1.11-9.45,6.73l1.91,46.73c0.2,5.83,1.41,6.93,9.05,6.93C774.57,109.96,774.57,111.17,774.17,111.17z"></path>		<path class="st6" d="M826.42,49.57c-0.4,0-0.4-1.21,0-1.21c2.91,0,5.93,0.3,9.75,0.3c3.11,0,6.33-0.3,8.94-0.3   c0.3,0,0.3,1.21,0,1.21c-5.43,0-7.94,2.91-7.94,9.35v28.74c0,15.88-9.35,24.82-23.42,24.82c-14.97,0-24.52-9.45-24.52-23.92V56.5   c0-5.73-1.31-6.93-8.94-6.93c-0.3,0-0.3-1.21,0-1.21c3.22,0,7.13,0.3,11.56,0.3c4.52,0,8.54-0.3,11.56-0.3c0.4,0,0.4,1.21,0,1.21   c-7.64,0-8.84,1.41-8.84,7.14v28.34c0,15.78,7.74,24.52,21,24.52c12.26,0,19.4-8.24,19.4-21.81V58.91   C834.97,52.48,832.25,49.57,826.42,49.57z"></path>		<path class="st6" d="M853.46,80.52c0-19.8,16.28-33.26,38.29-33.26c6.43,0,12.66,1.31,16.58,3.82c1.21,0.9,1.01,1.21,1.11,2.31   l1.21,10.55c0,0.3-1.1,0.6-1.21,0.1c-2.51-9.65-10.35-14.67-21.81-14.67c-17.89,0-27.94,10.55-27.94,27.64   c0,19.7,13.57,33.67,31.86,33.67c10.15,0,14.07-1.81,14.07-12.16c0-9.65-0.8-10.75-11.76-10.75c-0.8,0-0.8-1.61-0.1-1.61   c8.34,0.6,14.57,0.6,22.11,0.2c0.6,0,0.7,1.41,0,1.41c-5.03-0.1-5.43,1.11-5.43,11.76c0,6.73,0.7,7.24,0.7,8.84   c0,0.8-0.2,0.9-1.11,1.21c-6.73,1.61-14.27,2.81-20.9,2.81C866.62,112.38,853.46,98.21,853.46,80.52z"></path>		<path class="st6" d="M993.55,111.17c-3.11,0-7.23-0.2-11.56-0.2c-4.62,0-8.54,0.2-11.66,0.2c-0.4,0-0.4-1.21,0-1.21   c7.74,0,8.94-1.11,8.94-6.93V79.41h-40.1v23.62c0,5.83,1.21,6.93,8.94,6.93c0.3,0,0.3,1.21,0,1.21c-3.22,0-7.03-0.2-11.66-0.2   c-4.32,0-8.44,0.2-11.66,0.2c-0.3,0-0.3-1.21,0-1.21c7.64,0,9.05-1.11,9.05-6.93V56.5c0-5.73-1.31-6.93-8.94-6.93   c-0.3,0-0.3-1.21,0-1.21c3.22,0,7.24,0.3,11.56,0.3c4.62,0,8.54-0.3,11.66-0.3c0.3,0,0.3,1.21,0,1.21c-7.64,0-8.94,1.41-8.94,7.14   v20.8h40.1V56.7c0-5.73-1.21-7.14-8.94-7.14c-0.4,0-0.4-1.21,0-1.21c3.12,0,7.04,0.3,11.66,0.3c4.32,0,8.44-0.3,11.56-0.3   c0.4,0,0.4,1.21,0,1.21c-7.64,0-9.05,1.21-9.05,6.93v46.53c0,5.83,1.41,6.93,9.05,6.93C993.95,109.96,993.95,111.17,993.55,111.17   z"></path>		<path class="st6" d="M1068.12,111.17c-3.72,0-7.84-0.4-11.46-0.4c-4.12,0-6.73,0.4-10.35,0.4c-0.6,0-0.6-1.21,0-1.21   c7.54,0,9.14-1.61,6.63-7.24l-11.96-25.63h-19.19l-9.05,21.71c-3.42,8.24-0.6,11.16,8.54,11.16c0.6,0,0.6,1.21,0,1.21   c-4.02,0-6.73-0.4-11.86-0.4c-4.72,0-6.83,0.4-10.85,0.4c-0.6,0-0.6-1.21,0-1.21c5.43,0,8.24-2.41,12.26-12.06l21-50.55   c0.2-0.4,1.11-0.4,1.21,0l23.31,50.05c4.62,10.15,7.24,12.56,11.76,12.56C1068.62,109.96,1068.62,111.17,1068.12,111.17z    M1040.18,75.19l-9.35-19.9l-8.24,19.9H1040.18z"></path>	</g>	<g>		<path class="st6" d="M231.94,158c0.09,0,0.09,0.35,0,0.35c-0.94,0-2.05-0.06-3.43-0.06c-1.29,0-2.46,0.06-3.4,0.06   c-0.12,0-0.12-0.35,0-0.35c2.23,0,2.64-0.32,2.64-2.02v-13.56c0-1.67-0.41-2.02-2.64-2.02c-0.12,0-0.12-0.35,0-0.35   c0.94,0,2.11,0.09,3.4,0.09c1.38,0,2.52-0.09,3.43-0.09c0.09,0,0.09,0.35,0,0.35c-2.23,0-2.61,0.41-2.61,2.08v13.5   C229.34,157.67,229.69,158,231.94,158z"></path>		<path class="st6" d="M263.21,140.4c-1.67,0-2.28,0.73-2.28,2.72v15.55c0,0.09-0.26,0.12-0.35,0.06l-13.24-16.28   c-0.18-0.2-0.35-0.41-0.5-0.55v13.41c0,1.99,0.59,2.69,2.23,2.69c0.12,0,0.12,0.35,0,0.35c-0.73,0-1.52-0.06-2.49-0.06   c-0.94,0-1.82,0.06-2.58,0.06c-0.09,0-0.09-0.35,0-0.35c1.7,0,2.2-0.7,2.2-2.69v-14.03c-0.79-0.67-1.46-0.88-2.11-0.88   c-0.12,0-0.12-0.35,0-0.35c0.64,0,1.41,0.06,1.96,0.06s1.08-0.06,1.32-0.06c0.5,0,0.44,0.41,1.35,1.52l11.57,14.38v-12.83   c0-1.99-0.53-2.72-2.17-2.72c-0.09,0-0.09-0.35,0-0.35c0.76,0,1.55,0.09,2.52,0.09c0.91,0,1.84-0.09,2.58-0.09   C263.33,140.05,263.33,140.4,263.21,140.4z"></path>		<path class="st6" d="M281.53,148.45c2.14,1.26,4.39,2.49,4.39,5.3c0,2.7-1.96,4.95-5.94,4.95c-1.32,0-2.46-0.23-3.98-1   c-0.2-0.12-0.23-0.29-0.26-0.56l-0.44-3.81c-0.06-0.18,0.29-0.2,0.32-0.06c0.32,2.31,1.82,5.01,5.01,5.01   c1.82,0,3.69-0.88,3.69-3.51c0-2.84-2.14-4.07-4.28-5.33c-2.08-1.23-4.16-2.43-4.16-5.18c0-3.05,2.64-4.54,5.27-4.54   c1,0,2.11,0.2,3.34,0.7c0.29,0.12,0.44,0.29,0.44,0.5l0.26,3.1c0,0.18-0.32,0.18-0.35,0c-0.15-1.7-1.26-3.92-4.07-3.92   c-2.55,0-3.4,1.82-3.4,3.48C277.38,146.08,279.43,147.22,281.53,148.45z"></path>		<path class="st6" d="M298.33,144.56c0,0.09-0.35,0.09-0.35,0c0.15-0.97,0.41-3.89,0.41-5.15c0-0.18,0.35-0.21,0.35,0   c0,0.59,1,0.64,1.55,0.64c1.67,0.06,3.69,0.09,5.89,0.09c2.75,0,4.13-0.09,5.65-0.09c1.29,0,1.99-0.12,2.2-0.73   c0.03-0.15,0.32-0.15,0.32,0c-0.12,1.14-0.26,4.33-0.26,5.24c0,0.09-0.35,0.09-0.35,0c0-3.02-0.85-4.01-3.54-4.01   c-2.78,0-3.19,0.09-3.19,1.93v13.5c0,1.7,0.38,2.02,2.96,2.02c0.09,0,0.09,0.35,0,0.35c-1.03,0-2.28-0.06-3.78-0.06   c-1.41,0-2.69,0.06-3.75,0.06c-0.09,0-0.09-0.35,0-0.35c2.52,0,2.99-0.32,2.99-2.02v-13.56c0-1.87-0.5-1.87-3.25-1.87   C299.71,140.54,298.74,141.54,298.33,144.56z"></path>		<path class="st6" d="M333,158c0.09,0,0.09,0.35,0,0.35c-0.94,0-2.05-0.06-3.43-0.06c-1.29,0-2.46,0.06-3.4,0.06   c-0.12,0-0.12-0.35,0-0.35c2.23,0,2.64-0.32,2.64-2.02v-13.56c0-1.67-0.41-2.02-2.64-2.02c-0.12,0-0.12-0.35,0-0.35   c0.94,0,2.11,0.09,3.4,0.09c1.38,0,2.52-0.09,3.43-0.09c0.09,0,0.09,0.35,0,0.35c-2.23,0-2.61,0.41-2.61,2.08v13.5   C330.39,157.67,330.74,158,333,158z"></path>		<path class="st6" d="M345.23,144.56c0,0.09-0.35,0.09-0.35,0c0.15-0.97,0.41-3.89,0.41-5.15c0-0.18,0.35-0.21,0.35,0   c0,0.59,1,0.64,1.55,0.64c1.67,0.06,3.69,0.09,5.89,0.09c2.75,0,4.13-0.09,5.65-0.09c1.29,0,1.99-0.12,2.2-0.73   c0.03-0.15,0.32-0.15,0.32,0c-0.12,1.14-0.26,4.33-0.26,5.24c0,0.09-0.35,0.09-0.35,0c0-3.02-0.85-4.01-3.54-4.01   c-2.78,0-3.19,0.09-3.19,1.93v13.5c0,1.7,0.38,2.02,2.96,2.02c0.09,0,0.09,0.35,0,0.35c-1.03,0-2.28-0.06-3.78-0.06   c-1.41,0-2.69,0.06-3.75,0.06c-0.09,0-0.09-0.35,0-0.35c2.52,0,2.99-0.32,2.99-2.02v-13.56c0-1.87-0.5-1.87-3.25-1.87   C346.61,140.54,345.64,141.54,345.23,144.56z"></path>		<path class="st6" d="M385.93,140.4c-0.12,0-0.12-0.35,0-0.35c0.85,0,1.73,0.09,2.84,0.09c0.91,0,1.84-0.09,2.61-0.09   c0.09,0,0.09,0.35,0,0.35c-1.58,0-2.31,0.85-2.31,2.72v8.37c0,4.63-2.72,7.23-6.82,7.23c-4.36,0-7.14-2.75-7.14-6.97v-9.34   c0-1.67-0.38-2.02-2.61-2.02c-0.09,0-0.09-0.35,0-0.35c0.94,0,2.08,0.09,3.37,0.09c1.32,0,2.49-0.09,3.37-0.09   c0.12,0,0.12,0.35,0,0.35c-2.23,0-2.58,0.41-2.58,2.08v8.26c0,4.6,2.26,7.14,6.12,7.14c3.57,0,5.65-2.4,5.65-6.35v-8.4   C388.41,141.25,387.62,140.4,385.93,140.4z"></path>		<path class="st6" d="M402.87,144.56c0,0.09-0.35,0.09-0.35,0c0.15-0.97,0.41-3.89,0.41-5.15c0-0.18,0.35-0.21,0.35,0   c0,0.59,1,0.64,1.55,0.64c1.67,0.06,3.69,0.09,5.89,0.09c2.75,0,4.13-0.09,5.65-0.09c1.29,0,1.99-0.12,2.2-0.73   c0.03-0.15,0.32-0.15,0.32,0c-0.12,1.14-0.26,4.33-0.26,5.24c0,0.09-0.35,0.09-0.35,0c0-3.02-0.85-4.01-3.54-4.01   c-2.78,0-3.19,0.09-3.19,1.93v13.5c0,1.7,0.38,2.02,2.96,2.02c0.09,0,0.09,0.35,0,0.35c-1.03,0-2.28-0.06-3.78-0.06   c-1.41,0-2.69,0.06-3.75,0.06c-0.09,0-0.09-0.35,0-0.35c2.52,0,2.99-0.32,2.99-2.02v-13.56c0-1.87-0.5-1.87-3.25-1.87   C404.25,140.54,403.28,141.54,402.87,144.56z"></path>		<path class="st6" d="M443.42,154.1c-0.15,1.02-0.26,2.61-0.26,3.81c0,0.32-0.12,0.44-0.47,0.44h-12.09c-0.09,0-0.09-0.35,0-0.35   c2.23,0,2.61-0.32,2.61-2.02v-13.56c0-1.67-0.38-2.02-2.61-2.02c-0.09,0-0.09-0.35,0-0.35h11.6c0.2,0,0.26,0.09,0.26,0.26   l0.06,3.54c0,0.12-0.32,0.12-0.32,0c0-2.02-1.17-3.25-2.87-3.25h-2.02c-2.17,0-2.55,0.32-2.55,1.99v5.94h3.87   c1.79,0,2.4-0.53,2.4-2.02c0-0.09,0.35-0.09,0.35,0c0,1.14-0.03,1.61-0.03,2.31c0,0.88,0.06,1.67,0.06,2.64   c0,0.09-0.35,0.09-0.35,0c0-1.76-0.64-2.37-2.52-2.37h-3.78v6.76c0,1.64,0.38,1.93,2.55,1.93h2.69c1.55,0,2.78-1.49,3.08-3.72   C443.07,153.96,443.42,153.98,443.42,154.1z"></path>		<path class="st6" d="M471.93,149.21c0-6.35,5.56-9.49,10.31-9.49c5.77,0,9.25,4.57,9.25,9.28c0,5.45-4.71,9.69-10.28,9.69   C475.59,158.7,471.93,154.37,471.93,149.21z M489.61,149.83c0-5.53-3.4-9.46-8.61-9.46c-4.54,0-7.2,3.02-7.2,7.85   c0,5.47,3.4,9.9,8.46,9.9C486.36,158.11,489.61,155.18,489.61,149.83z"></path>		<path class="st6" d="M515.49,143.85c0,0.12-0.32,0.12-0.32,0c0-2.02-1.17-3.25-2.87-3.25h-2.02c-2.11,0-2.55,0.32-2.55,1.84v6.44   h3.19c2.02,0,2.72-0.56,2.72-2.02c0-0.09,0.35-0.09,0.35,0c0,1.14-0.03,1.61-0.03,2.31c0,0.88,0.06,1.67,0.06,2.64   c0,0.09-0.35,0.09-0.35,0c0-1.76-0.73-2.37-2.87-2.37h-3.08v6.41c0,1.76,0.47,2.14,3.66,2.14c0.12,0,0.12,0.35,0,0.35   c-1.26,0-2.69-0.06-4.42-0.06c-1.26,0-2.46,0.06-3.4,0.06c-0.09,0-0.09-0.35,0-0.35c2.23,0,2.61-0.32,2.61-2.02v-13.56   c0-1.67-0.38-2.02-2.61-2.02c-0.09,0-0.09-0.35,0-0.35h11.6c0.21,0,0.26,0.09,0.26,0.26L515.49,143.85z"></path>		<path class="st6" d="M563.01,158.35c-1.08,0-2.28-0.12-3.34-0.12c-1.2,0-1.96,0.12-3.02,0.12c-0.18,0-0.18-0.35,0-0.35   c2.2,0,2.67-0.47,1.93-2.11l-3.48-7.47h-5.59l-2.64,6.32c-1,2.4-0.18,3.25,2.49,3.25c0.18,0,0.18,0.35,0,0.35   c-1.17,0-1.96-0.12-3.46-0.12c-1.38,0-1.99,0.12-3.16,0.12c-0.18,0-0.18-0.35,0-0.35c1.58,0,2.4-0.7,3.57-3.51l6.12-14.73   c0.06-0.12,0.32-0.12,0.35,0l6.79,14.58c1.35,2.96,2.11,3.66,3.43,3.66C563.15,158,563.15,158.35,563.01,158.35z M554.86,147.86   l-2.72-5.8l-2.4,5.8H554.86z"></path>		<path class="st6" d="M577.7,155.86c0,1.64,0.38,1.93,2.52,1.93h3.75c2.08,0,3.1-1.49,3.43-3.72c0-0.12,0.32-0.09,0.32,0.03   c-0.12,1.02-0.26,2.61-0.26,3.81c0,0.32-0.09,0.44-0.44,0.44h-13.47c-0.09,0-0.09-0.35,0-0.35c2.23,0,2.61-0.32,2.61-2.02v-13.56   c0-1.67-0.38-2.02-2.61-2.02c-0.09,0-0.09-0.35,0-0.35c0.94,0,2.11,0.09,3.37,0.09c1.32,0,2.49-0.09,3.4-0.09   c0.09,0,0.09,0.35,0,0.35c-2.23,0-2.61,0.38-2.61,2.05V155.86z"></path>		<path class="st6" d="M602.58,155.86c0,1.64,0.38,1.93,2.52,1.93h3.75c2.08,0,3.1-1.49,3.43-3.72c0-0.12,0.32-0.09,0.32,0.03   c-0.12,1.02-0.26,2.61-0.26,3.81c0,0.32-0.09,0.44-0.44,0.44h-13.47c-0.09,0-0.09-0.35,0-0.35c2.23,0,2.61-0.32,2.61-2.02v-13.56   c0-1.67-0.38-2.02-2.61-2.02c-0.09,0-0.09-0.35,0-0.35c0.94,0,2.11,0.09,3.37,0.09c1.32,0,2.49-0.09,3.4-0.09   c0.09,0,0.09,0.35,0,0.35c-2.22,0-2.61,0.38-2.61,2.05V155.86z"></path>		<path class="st6" d="M630.48,158c0.09,0,0.09,0.35,0,0.35c-0.94,0-2.05-0.06-3.43-0.06c-1.29,0-2.46,0.06-3.4,0.06   c-0.12,0-0.12-0.35,0-0.35c2.23,0,2.64-0.32,2.64-2.02v-13.56c0-1.67-0.41-2.02-2.64-2.02c-0.12,0-0.12-0.35,0-0.35   c0.94,0,2.11,0.09,3.4,0.09c1.38,0,2.52-0.09,3.43-0.09c0.09,0,0.09,0.35,0,0.35c-2.23,0-2.61,0.41-2.61,2.08v13.5   C627.87,157.67,628.22,158,630.48,158z"></path>		<path class="st6" d="M655.39,154.1c-0.15,1.02-0.26,2.61-0.26,3.81c0,0.32-0.12,0.44-0.47,0.44h-12.09c-0.09,0-0.09-0.35,0-0.35   c2.22,0,2.6-0.32,2.6-2.02v-13.56c0-1.67-0.38-2.02-2.6-2.02c-0.09,0-0.09-0.35,0-0.35h11.59c0.21,0,0.26,0.09,0.26,0.26   l0.06,3.54c0,0.12-0.32,0.12-0.32,0c0-2.02-1.17-3.25-2.87-3.25h-2.02c-2.17,0-2.55,0.32-2.55,1.99v5.94h3.87   c1.79,0,2.4-0.53,2.4-2.02c0-0.09,0.35-0.09,0.35,0c0,1.14-0.03,1.61-0.03,2.31c0,0.88,0.06,1.67,0.06,2.64   c0,0.09-0.35,0.09-0.35,0c0-1.76-0.64-2.37-2.52-2.37h-3.78v6.76c0,1.64,0.38,1.93,2.55,1.93h2.69c1.55,0,2.78-1.49,3.07-3.72   C655.04,153.96,655.39,153.98,655.39,154.1z"></path>		<path class="st6" d="M670.7,158.29c-1.26,0-2.46,0.06-3.4,0.06c-0.09,0-0.09-0.35,0-0.35c2.22,0,2.64-0.32,2.64-2.02v-13.56   c0-1.67-0.38-2.02-2.61-2.02c-0.09,0-0.09-0.35,0-0.35c0.94,0,2.11,0.09,3.37,0.09c1.23,0,2.81-0.15,3.84-0.15   c6.27,0,10.42,3.87,10.42,8.9c0,5.86-4.6,9.57-10.02,9.57C673.86,158.47,672.05,158.29,670.7,158.29z M683.06,149.53   c0-5.12-3.19-9.17-8.26-9.17c-2.37,0-3.31,0.26-3.31,2.11v13.18c0,1.67,0.56,2.43,3.16,2.43   C679.54,158.08,683.06,155.07,683.06,149.53z"></path>		<path class="st6" d="M733.06,158.35c-0.91,0-2.11-0.06-3.37-0.06c-1.35,0-2.49,0.06-3.4,0.06c-0.12,0-0.12-0.35,0-0.35   c2.25,0,2.61-0.32,2.61-2.02v-6.88h-11.68v6.88c0,1.7,0.35,2.02,2.61,2.02c0.09,0,0.09,0.35,0,0.35c-0.94,0-2.05-0.06-3.4-0.06   c-1.26,0-2.46,0.06-3.4,0.06c-0.09,0-0.09-0.35,0-0.35c2.22,0,2.64-0.32,2.64-2.02v-13.56c0-1.67-0.38-2.02-2.61-2.02   c-0.09,0-0.09-0.35,0-0.35c0.94,0,2.11,0.09,3.37,0.09c1.35,0,2.49-0.09,3.4-0.09c0.09,0,0.09,0.35,0,0.35   c-2.23,0-2.61,0.41-2.61,2.08v6.06h11.68v-6.06c0-1.67-0.35-2.08-2.61-2.08c-0.12,0-0.12-0.35,0-0.35c0.91,0,2.05,0.09,3.4,0.09   c1.26,0,2.46-0.09,3.37-0.09c0.12,0,0.12,0.35,0,0.35c-2.23,0-2.64,0.35-2.64,2.02v13.56c0,1.7,0.41,2.02,2.64,2.02   C733.17,158,733.17,158.35,733.06,158.35z"></path>		<path class="st6" d="M757.65,154.1c-0.15,1.02-0.26,2.61-0.26,3.81c0,0.32-0.12,0.44-0.47,0.44h-12.09c-0.09,0-0.09-0.35,0-0.35   c2.22,0,2.6-0.32,2.6-2.02v-13.56c0-1.67-0.38-2.02-2.6-2.02c-0.09,0-0.09-0.35,0-0.35h11.59c0.21,0,0.26,0.09,0.26,0.26   l0.06,3.54c0,0.12-0.32,0.12-0.32,0c0-2.02-1.17-3.25-2.87-3.25h-2.02c-2.17,0-2.55,0.32-2.55,1.99v5.94h3.87   c1.79,0,2.4-0.53,2.4-2.02c0-0.09,0.35-0.09,0.35,0c0,1.14-0.03,1.61-0.03,2.31c0,0.88,0.06,1.67,0.06,2.64   c0,0.09-0.35,0.09-0.35,0c0-1.76-0.64-2.37-2.52-2.37h-3.78v6.76c0,1.64,0.38,1.93,2.55,1.93h2.69c1.55,0,2.78-1.49,3.07-3.72   C757.29,153.96,757.65,153.98,757.65,154.1z"></path>		<path class="st6" d="M788.82,158.35c-1.08,0-2.28-0.12-3.34-0.12c-1.2,0-1.96,0.12-3.02,0.12c-0.18,0-0.18-0.35,0-0.35   c2.2,0,2.66-0.47,1.93-2.11l-3.48-7.47h-5.59l-2.64,6.32c-1,2.4-0.18,3.25,2.49,3.25c0.18,0,0.18,0.35,0,0.35   c-1.17,0-1.96-0.12-3.45-0.12c-1.38,0-1.99,0.12-3.16,0.12c-0.18,0-0.18-0.35,0-0.35c1.58,0,2.4-0.7,3.57-3.51l6.12-14.73   c0.06-0.12,0.32-0.12,0.35,0l6.79,14.58c1.35,2.96,2.11,3.66,3.43,3.66C788.97,158,788.97,158.35,788.82,158.35z M780.68,147.86   l-2.72-5.8l-2.4,5.8H780.68z"></path>		<path class="st6" d="M803.52,155.86c0,1.64,0.38,1.93,2.52,1.93h3.75c2.08,0,3.1-1.49,3.43-3.72c0-0.12,0.32-0.09,0.32,0.03   c-0.12,1.02-0.26,2.61-0.26,3.81c0,0.32-0.09,0.44-0.44,0.44h-13.47c-0.09,0-0.09-0.35,0-0.35c2.22,0,2.61-0.32,2.61-2.02v-13.56   c0-1.67-0.38-2.02-2.61-2.02c-0.09,0-0.09-0.35,0-0.35c0.94,0,2.11,0.09,3.37,0.09c1.32,0,2.49-0.09,3.4-0.09   c0.09,0,0.09,0.35,0,0.35c-2.22,0-2.61,0.38-2.61,2.05V155.86z"></path>		<path class="st6" d="M823.95,144.56c0,0.09-0.35,0.09-0.35,0c0.15-0.97,0.41-3.89,0.41-5.15c0-0.18,0.35-0.21,0.35,0   c0,0.59,0.99,0.64,1.55,0.64c1.67,0.06,3.69,0.09,5.89,0.09c2.75,0,4.13-0.09,5.65-0.09c1.29,0,1.99-0.12,2.2-0.73   c0.03-0.15,0.32-0.15,0.32,0c-0.12,1.14-0.26,4.33-0.26,5.24c0,0.09-0.35,0.09-0.35,0c0-3.02-0.85-4.01-3.54-4.01   c-2.78,0-3.19,0.09-3.19,1.93v13.5c0,1.7,0.38,2.02,2.96,2.02c0.09,0,0.09,0.35,0,0.35c-1.02,0-2.28-0.06-3.78-0.06   c-1.41,0-2.7,0.06-3.75,0.06c-0.09,0-0.09-0.35,0-0.35c2.52,0,2.99-0.32,2.99-2.02v-13.56c0-1.87-0.5-1.87-3.25-1.87   C825.33,140.54,824.36,141.54,823.95,144.56z"></path>		<path class="st6" d="M871.47,158.35c-0.91,0-2.11-0.06-3.37-0.06c-1.35,0-2.49,0.06-3.4,0.06c-0.12,0-0.12-0.35,0-0.35   c2.25,0,2.61-0.32,2.61-2.02v-6.88h-11.68v6.88c0,1.7,0.35,2.02,2.61,2.02c0.09,0,0.09,0.35,0,0.35c-0.94,0-2.05-0.06-3.4-0.06   c-1.26,0-2.46,0.06-3.4,0.06c-0.09,0-0.09-0.35,0-0.35c2.22,0,2.64-0.32,2.64-2.02v-13.56c0-1.67-0.38-2.02-2.61-2.02   c-0.09,0-0.09-0.35,0-0.35c0.94,0,2.11,0.09,3.37,0.09c1.35,0,2.49-0.09,3.4-0.09c0.09,0,0.09,0.35,0,0.35   c-2.23,0-2.61,0.41-2.61,2.08v6.06h11.68v-6.06c0-1.67-0.35-2.08-2.61-2.08c-0.12,0-0.12-0.35,0-0.35c0.91,0,2.05,0.09,3.4,0.09   c1.26,0,2.46-0.09,3.37-0.09c0.12,0,0.12,0.35,0,0.35c-2.23,0-2.64,0.35-2.64,2.02v13.56c0,1.7,0.41,2.02,2.64,2.02   C871.58,158,871.58,158.35,871.47,158.35z"></path>		<path class="st6" d="M906.36,148.45c2.14,1.26,4.39,2.49,4.39,5.3c0,2.7-1.96,4.95-5.95,4.95c-1.32,0-2.46-0.23-3.98-1   c-0.21-0.12-0.23-0.29-0.26-0.56l-0.44-3.81c-0.06-0.18,0.29-0.2,0.32-0.06c0.32,2.31,1.82,5.01,5.01,5.01   c1.82,0,3.69-0.88,3.69-3.51c0-2.84-2.14-4.07-4.28-5.33c-2.08-1.23-4.16-2.43-4.16-5.18c0-3.05,2.64-4.54,5.27-4.54   c1,0,2.11,0.2,3.34,0.7c0.29,0.12,0.44,0.29,0.44,0.5l0.26,3.1c0,0.18-0.32,0.18-0.35,0c-0.15-1.7-1.26-3.92-4.07-3.92   c-2.55,0-3.4,1.82-3.4,3.48C902.2,146.08,904.25,147.22,906.36,148.45z"></path>		<path class="st6" d="M939.03,140.81c0.32,0.2,0.38,0.29,0.41,0.7l0.32,3.08c0,0.09-0.29,0.17-0.32,0.03   c-0.79-3.16-3.43-4.27-6.77-4.27c-4.63,0-7.7,3.13-7.7,7.88c0,5.62,4.04,10.13,8.7,10.13c2.78,0,5.01-1.4,6.03-4.63   c0.03-0.15,0.35-0.06,0.35,0.03l-0.41,3.13c-0.09,0.47-0.12,0.53-0.47,0.67c-1.87,0.82-3.72,1.14-5.59,1.14   c-7.44,0-10.42-5.15-10.42-9.69c0-5.53,5.15-9.28,10.66-9.28C935.66,139.72,937.83,140.11,939.03,140.81z"></path>		<path class="st6" d="M958.9,158c0.09,0,0.09,0.35,0,0.35c-0.94,0-2.05-0.06-3.43-0.06c-1.29,0-2.46,0.06-3.4,0.06   c-0.12,0-0.12-0.35,0-0.35c2.23,0,2.64-0.32,2.64-2.02v-13.56c0-1.67-0.41-2.02-2.64-2.02c-0.12,0-0.12-0.35,0-0.35   c0.94,0,2.11,0.09,3.4,0.09c1.38,0,2.52-0.09,3.43-0.09c0.09,0,0.09,0.35,0,0.35c-2.23,0-2.61,0.41-2.61,2.08v13.5   C956.3,157.67,956.65,158,958.9,158z"></path>		<path class="st6" d="M983.82,154.1c-0.15,1.02-0.26,2.61-0.26,3.81c0,0.32-0.12,0.44-0.47,0.44h-12.09c-0.09,0-0.09-0.35,0-0.35   c2.22,0,2.6-0.32,2.6-2.02v-13.56c0-1.67-0.38-2.02-2.6-2.02c-0.09,0-0.09-0.35,0-0.35h11.59c0.21,0,0.26,0.09,0.26,0.26   l0.06,3.54c0,0.12-0.32,0.12-0.32,0c0-2.02-1.17-3.25-2.87-3.25h-2.02c-2.17,0-2.55,0.32-2.55,1.99v5.94h3.87   c1.79,0,2.4-0.53,2.4-2.02c0-0.09,0.35-0.09,0.35,0c0,1.14-0.03,1.61-0.03,2.31c0,0.88,0.06,1.67,0.06,2.64   c0,0.09-0.35,0.09-0.35,0c0-1.76-0.64-2.37-2.52-2.37h-3.78v6.76c0,1.64,0.38,1.93,2.55,1.93h2.69c1.55,0,2.78-1.49,3.07-3.72   C983.46,153.96,983.82,153.98,983.82,154.1z"></path>		<path class="st6" d="M1015.14,140.4c-1.67,0-2.28,0.73-2.28,2.72v15.55c0,0.09-0.26,0.12-0.35,0.06l-13.23-16.28   c-0.18-0.2-0.35-0.41-0.5-0.55v13.41c0,1.99,0.59,2.69,2.22,2.69c0.12,0,0.12,0.35,0,0.35c-0.73,0-1.52-0.06-2.49-0.06   c-0.94,0-1.82,0.06-2.58,0.06c-0.09,0-0.09-0.35,0-0.35c1.7,0,2.2-0.7,2.2-2.69v-14.03c-0.79-0.67-1.46-0.88-2.11-0.88   c-0.12,0-0.12-0.35,0-0.35c0.64,0,1.4,0.06,1.96,0.06s1.08-0.06,1.32-0.06c0.5,0,0.44,0.41,1.35,1.52l11.57,14.38v-12.83   c0-1.99-0.53-2.72-2.17-2.72c-0.09,0-0.09-0.35,0-0.35c0.76,0,1.55,0.09,2.52,0.09c0.91,0,1.85-0.09,2.58-0.09   C1015.26,140.05,1015.26,140.4,1015.14,140.4z"></path>		<path class="st6" d="M1042.57,140.81c0.32,0.2,0.38,0.29,0.41,0.7l0.32,3.08c0,0.09-0.29,0.17-0.32,0.03   c-0.79-3.16-3.43-4.27-6.77-4.27c-4.63,0-7.7,3.13-7.7,7.88c0,5.62,4.04,10.13,8.7,10.13c2.78,0,5.01-1.4,6.03-4.63   c0.03-0.15,0.35-0.06,0.35,0.03l-0.41,3.13c-0.09,0.47-0.12,0.53-0.47,0.67c-1.87,0.82-3.72,1.14-5.59,1.14   c-7.44,0-10.42-5.15-10.42-9.69c0-5.53,5.15-9.28,10.66-9.28C1039.2,139.72,1041.37,140.11,1042.57,140.81z"></path>		<path class="st6" d="M1068.33,154.1c-0.15,1.02-0.26,2.61-0.26,3.81c0,0.32-0.12,0.44-0.47,0.44h-12.09c-0.09,0-0.09-0.35,0-0.35   c2.22,0,2.6-0.32,2.6-2.02v-13.56c0-1.67-0.38-2.02-2.6-2.02c-0.09,0-0.09-0.35,0-0.35h11.59c0.21,0,0.26,0.09,0.26,0.26   l0.06,3.54c0,0.12-0.32,0.12-0.32,0c0-2.02-1.17-3.25-2.87-3.25h-2.02c-2.17,0-2.55,0.32-2.55,1.99v5.94h3.87   c1.79,0,2.4-0.53,2.4-2.02c0-0.09,0.35-0.09,0.35,0c0,1.14-0.03,1.61-0.03,2.31c0,0.88,0.06,1.67,0.06,2.64   c0,0.09-0.35,0.09-0.35,0c0-1.76-0.64-2.37-2.52-2.37h-3.78v6.76c0,1.64,0.38,1.93,2.55,1.93h2.69c1.55,0,2.78-1.49,3.07-3.72   C1067.98,153.96,1068.33,153.98,1068.33,154.1z"></path>	</g></g></svg>