<svg xmlns="http://www.w3.org/2000/svg" xmlns:xlink="http://www.w3.org/1999/xlink" id="Layer_1" x="0px" y="0px" viewBox="0 0 879.32 160.26" style="enable-background:new 0 0 879.32 160.26;" xml:space="preserve"><style type="text/css">	.st0{fill:#333333;}	.st1{fill:url(#SVGID_1_);stroke:url(#SVGID_2_);stroke-miterlimit:10;}	.st2{fill:url(#SVGID_3_);stroke:url(#SVGID_4_);stroke-miterlimit:10;}	.st3{fill:url(#SVGID_5_);stroke:url(#SVGID_6_);stroke-miterlimit:10;}	.st4{fill:url(#SVGID_7_);stroke:url(#SVGID_8_);stroke-miterlimit:10;}	.st5{fill:url(#SVGID_9_);stroke:url(#SVGID_10_);stroke-miterlimit:10;}	.st6{fill:url(#SVGID_11_);stroke:url(#SVGID_12_);stroke-miterlimit:10;}</style><g>	<g>		<g>			<path class="st0" d="M200.65,61.74c5.92,3.49,12.16,6.89,12.16,14.67c0,7.46-5.43,13.7-16.46,13.7c-3.65,0-6.81-0.65-11.03-2.76    c-0.57-0.32-0.65-0.81-0.73-1.54l-1.22-10.54c-0.16-0.49,0.81-0.57,0.89-0.16c0.89,6.41,5.03,13.86,13.86,13.86    c5.03,0,10.21-2.43,10.21-9.73c0-7.86-5.92-11.27-11.84-14.75c-5.76-3.4-11.51-6.73-11.51-14.35c0-8.43,7.3-12.57,14.59-12.57    c2.76,0,5.84,0.57,9.24,1.95c0.81,0.32,1.22,0.81,1.22,1.38l0.73,8.59c0,0.49-0.89,0.49-0.97,0c-0.41-4.7-3.49-10.86-11.27-10.86    c-7.05,0-9.4,5.03-9.4,9.65C189.14,55.17,194.81,58.34,200.65,61.74z"></path>			<path class="st0" d="M272.89,89.14h-9.4c-2.84,0-11.03-10.05-21.81-26.43c-1.54,0.41-3.24,0.65-4.95,0.65    c-0.97,0-2.43-0.08-3.49-0.16v19.38c0,4.7,0.97,5.59,7.22,5.59c0.32,0,0.32,0.97,0,0.97c-2.59,0-5.68-0.16-9.4-0.16    c-3.49,0-6.81,0.16-9.4,0.16c-0.24,0-0.24-0.97,0-0.97c6.16,0,7.38-0.89,7.38-5.59V45.04c0-4.62-1.05-5.59-7.22-5.59    c-0.32,0-0.32-0.97,0-0.97c2.51,0,5.76,0.24,9.24,0.24c2.76,0,7.05-0.49,9.49-0.49c8.67,0,13.21,3.89,13.21,10.13    c0,5.27-3.32,10.13-8.27,12.81c13.7,20.19,20.35,27,27.4,27C273.21,88.17,273.21,89.14,272.89,89.14z M238.11,61.58    c7.86,0,11.11-3.08,11.11-10.46c0-8.76-4.62-11.84-10.54-11.84c-3.97,0-5.43,0.16-5.43,5.92v16.05    C234.78,61.42,236.65,61.58,238.11,61.58z"></path>			<path class="st0" d="M295.75,88.17c0.24,0,0.24,0.97,0,0.97c-2.59,0-5.67-0.16-9.49-0.16c-3.57,0-6.81,0.16-9.4,0.16    c-0.32,0-0.32-0.97,0-0.97c6.16,0,7.3-0.89,7.3-5.59V45.04c0-4.62-1.13-5.59-7.3-5.59c-0.32,0-0.32-0.97,0-0.97    c2.59,0,5.84,0.24,9.4,0.24c3.81,0,6.97-0.24,9.49-0.24c0.24,0,0.24,0.97,0,0.97c-6.16,0-7.22,1.14-7.22,5.76v37.37    C288.53,87.28,289.51,88.17,295.75,88.17z"></path>			<path class="st0" d="M362.79,61.74c5.92,3.49,12.16,6.89,12.16,14.67c0,7.46-5.43,13.7-16.46,13.7c-3.65,0-6.81-0.65-11.03-2.76    c-0.57-0.32-0.65-0.81-0.73-1.54l-1.22-10.54c-0.16-0.49,0.81-0.57,0.89-0.16c0.89,6.41,5.03,13.86,13.86,13.86    c5.03,0,10.21-2.43,10.21-9.73c0-7.86-5.92-11.27-11.84-14.75c-5.76-3.4-11.51-6.73-11.51-14.35c0-8.43,7.3-12.57,14.59-12.57    c2.76,0,5.84,0.57,9.24,1.95c0.81,0.32,1.22,0.81,1.22,1.38l0.73,8.59c0,0.49-0.89,0.49-0.97,0c-0.41-4.7-3.49-10.86-11.27-10.86    c-7.05,0-9.4,5.03-9.4,9.65C351.28,55.17,356.96,58.34,362.79,61.74z"></path>			<path class="st0" d="M438.59,89.14c-2.51,0-5.84-0.16-9.32-0.16c-3.73,0-6.89,0.16-9.4,0.16c-0.32,0-0.32-0.97,0-0.97    c6.24,0,7.22-0.89,7.22-5.59V63.52h-32.35v19.05c0,4.7,0.97,5.59,7.21,5.59c0.24,0,0.24,0.97,0,0.97c-2.59,0-5.67-0.16-9.4-0.16    c-3.49,0-6.81,0.16-9.4,0.16c-0.24,0-0.24-0.97,0-0.97c6.16,0,7.3-0.89,7.3-5.59V45.04c0-4.62-1.05-5.59-7.22-5.59    c-0.24,0-0.24-0.97,0-0.97c2.59,0,5.84,0.24,9.32,0.24c3.73,0,6.89-0.24,9.4-0.24c0.24,0,0.24,0.97,0,0.97    c-6.16,0-7.21,1.14-7.21,5.76v16.78h32.35V45.2c0-4.62-0.97-5.76-7.22-5.76c-0.32,0-0.32-0.97,0-0.97c2.51,0,5.67,0.24,9.4,0.24    c3.49,0,6.81-0.24,9.32-0.24c0.32,0,0.32,0.97,0,0.97c-6.16,0-7.3,0.97-7.3,5.59v37.54c0,4.7,1.13,5.59,7.3,5.59    C438.92,88.17,438.92,89.14,438.59,89.14z"></path>			<path class="st0" d="M498.75,89.14c-3,0-6.32-0.32-9.24-0.32c-3.32,0-5.43,0.32-8.35,0.32c-0.49,0-0.49-0.97,0-0.97    c6.08,0,7.38-1.3,5.35-5.84l-9.65-20.67h-15.48l-7.3,17.51c-2.76,6.65-0.49,9,6.89,9c0.49,0,0.49,0.97,0,0.97    c-3.24,0-5.43-0.32-9.57-0.32c-3.81,0-5.51,0.32-8.76,0.32c-0.49,0-0.49-0.97,0-0.97c4.38,0,6.65-1.95,9.89-9.73l16.94-40.78    c0.16-0.32,0.89-0.32,0.97,0l18.81,40.37c3.73,8.19,5.84,10.13,9.49,10.13C499.16,88.17,499.16,89.14,498.75,89.14z     M476.21,60.12l-7.54-16.05l-6.65,16.05H476.21z"></path>			<path class="st0" d="M556.56,39.45c-4.62,0-6.32,2.03-6.32,7.54v43.05c0,0.24-0.73,0.32-0.97,0.16l-36.64-45.07    c-0.49-0.57-0.97-1.14-1.38-1.54v37.13c0,5.51,1.62,7.46,6.16,7.46c0.32,0,0.32,0.97,0,0.97c-2.03,0-4.21-0.16-6.89-0.16    c-2.59,0-5.03,0.16-7.13,0.16c-0.24,0-0.24-0.97,0-0.97c4.7,0,6.08-1.95,6.08-7.46V41.88c-2.19-1.86-4.05-2.43-5.84-2.43    c-0.32,0-0.32-0.97,0-0.97c1.78,0,3.89,0.16,5.43,0.16c1.54,0,3-0.16,3.65-0.16c1.38,0,1.22,1.13,3.73,4.22l32.02,39.81V46.99    c0-5.51-1.46-7.54-6-7.54c-0.24,0-0.24-0.97,0-0.97c2.11,0,4.3,0.24,6.97,0.24c2.51,0,5.11-0.24,7.13-0.24    C556.88,38.47,556.88,39.45,556.56,39.45z"></path>			<path class="st0" d="M624.9,89.14c-2.59,0-5.84-0.16-9.4-0.16c-3.32,0-6.16,0.16-8.43,0.16c-0.24,0-0.24-0.97,0-0.97    c5.43,0,6.49-0.89,6.24-5.59l-1.38-37.7l-18.97,43.7c-0.16,0.41-1.13,0.41-1.38,0L571.8,45.2c0-0.08-0.08-0.08-0.08-0.16    l-0.65,35.67c-0.08,5.51,1.38,7.46,6.81,7.46c0.24,0,0.24,0.97,0,0.97c-2.35,0-4.86-0.16-7.86-0.16c-2.59,0-5.03,0.16-7.13,0.16    c-0.24,0-0.24-0.97,0-0.97c4.54,0,6.24-1.95,6.32-7.46l0.81-38.43c-1.7-1.95-3.81-2.84-6.57-2.84c-0.24,0-0.24-0.97,0-0.97    c1.62,0,3.65,0.16,4.86,0.16c1.46,0,2.92-0.16,3.57-0.16c1.46,0,2.03,0.57,3.73,4.22l18.24,39.4l18.16-41.59    c0.57-1.22,1.54-2.03,2.43-2.03c0.49,0,1.62,0.16,3.08,0.16c2.76,0,4.22-0.16,6.16-0.16c0.24,0,0.24,0.97,0,0.97    c-5.27,0-7.78,0.89-7.62,5.43l1.54,37.7c0.16,4.7,1.13,5.59,7.3,5.59C625.22,88.17,625.22,89.14,624.9,89.14z"></path>			<path class="st0" d="M667.06,39.45c-0.32,0-0.32-0.97,0-0.97c2.35,0,4.78,0.24,7.86,0.24c2.51,0,5.11-0.24,7.22-0.24    c0.24,0,0.24,0.97,0,0.97c-4.38,0-6.41,2.35-6.41,7.54v23.19c0,12.81-7.54,20.02-18.89,20.02c-12.08,0-19.78-7.62-19.78-19.29    V45.04c0-4.62-1.05-5.59-7.22-5.59c-0.24,0-0.24-0.97,0-0.97c2.59,0,5.76,0.24,9.32,0.24c3.65,0,6.89-0.24,9.32-0.24    c0.32,0,0.32,0.97,0,0.97c-6.16,0-7.13,1.14-7.13,5.76v22.86c0,12.73,6.24,19.78,16.94,19.78c9.89,0,15.65-6.65,15.65-17.59    V46.99C673.95,41.8,671.76,39.45,667.06,39.45z"></path>			<path class="st0" d="M688.87,64.42c0-15.97,13.13-26.83,30.89-26.83c5.19,0,10.21,1.05,13.38,3.08c0.97,0.73,0.81,0.97,0.89,1.86    l0.97,8.51c0,0.24-0.89,0.49-0.97,0.08c-2.03-7.78-8.35-11.84-17.59-11.84c-14.43,0-22.54,8.51-22.54,22.29    c0,15.89,10.94,27.16,25.7,27.16c8.19,0,11.35-1.46,11.35-9.81c0-7.78-0.65-8.67-9.49-8.67c-0.65,0-0.65-1.3-0.08-1.3    c6.73,0.49,11.75,0.49,17.83,0.16c0.49,0,0.57,1.13,0,1.13c-4.05-0.08-4.38,0.89-4.38,9.49c0,5.43,0.57,5.84,0.57,7.13    c0,0.65-0.16,0.73-0.89,0.97c-5.43,1.3-11.51,2.27-16.86,2.27C699.49,90.11,688.87,78.68,688.87,64.42z"></path>			<path class="st0" d="M801.88,89.14c-2.51,0-5.84-0.16-9.32-0.16c-3.73,0-6.89,0.16-9.4,0.16c-0.32,0-0.32-0.97,0-0.97    c6.24,0,7.21-0.89,7.21-5.59V63.52h-32.35v19.05c0,4.7,0.97,5.59,7.21,5.59c0.24,0,0.24,0.97,0,0.97c-2.59,0-5.67-0.16-9.4-0.16    c-3.49,0-6.81,0.16-9.4,0.16c-0.24,0-0.24-0.97,0-0.97c6.16,0,7.3-0.89,7.3-5.59V45.04c0-4.62-1.05-5.59-7.21-5.59    c-0.24,0-0.24-0.97,0-0.97c2.59,0,5.84,0.24,9.32,0.24c3.73,0,6.89-0.24,9.4-0.24c0.24,0,0.24,0.97,0,0.97    c-6.16,0-7.21,1.14-7.21,5.76v16.78h32.35V45.2c0-4.62-0.97-5.76-7.21-5.76c-0.32,0-0.32-0.97,0-0.97c2.51,0,5.67,0.24,9.4,0.24    c3.49,0,6.81-0.24,9.32-0.24c0.32,0,0.32,0.97,0,0.97c-6.16,0-7.3,0.97-7.3,5.59v37.54c0,4.7,1.13,5.59,7.3,5.59    C802.2,88.17,802.2,89.14,801.88,89.14z"></path>			<path class="st0" d="M862.04,89.14c-3,0-6.32-0.32-9.24-0.32c-3.32,0-5.43,0.32-8.35,0.32c-0.49,0-0.49-0.97,0-0.97    c6.08,0,7.38-1.3,5.35-5.84l-9.65-20.67h-15.48l-7.3,17.51c-2.76,6.65-0.49,9,6.89,9c0.49,0,0.49,0.97,0,0.97    c-3.24,0-5.43-0.32-9.57-0.32c-3.81,0-5.51,0.32-8.76,0.32c-0.49,0-0.49-0.97,0-0.97c4.38,0,6.65-1.95,9.89-9.73l16.94-40.78    c0.16-0.32,0.89-0.32,0.97,0l18.81,40.37c3.73,8.19,5.84,10.13,9.49,10.13C862.44,88.17,862.44,89.14,862.04,89.14z M839.5,60.12    l-7.54-16.05l-6.65,16.05H839.5z"></path>		</g>		<linearGradient id="SVGID_1_" gradientUnits="userSpaceOnUse" x1="112.6247" y1="49.5926" x2="83.4741" y2="94.2962">			<stop offset="0" style="stop-color:#056195"></stop>			<stop offset="0.0896" style="stop-color:#0C5C90"></stop>			<stop offset="0.2231" style="stop-color:#185086"></stop>			<stop offset="0.3832" style="stop-color:#223B75"></stop>			<stop offset="0.4709" style="stop-color:#252E6B"></stop>			<stop offset="0.5803" style="stop-color:#24316E"></stop>			<stop offset="0.72" style="stop-color:#213C76"></stop>			<stop offset="0.8755" style="stop-color:#174C83"></stop>			<stop offset="1" style="stop-color:#005D92"></stop>		</linearGradient>		<linearGradient id="SVGID_2_" gradientUnits="userSpaceOnUse" x1="60.746" y1="66.031" x2="143.6443" y2="66.031">			<stop offset="0" style="stop-color:#056195"></stop>			<stop offset="0.0896" style="stop-color:#0C5C90"></stop>			<stop offset="0.2231" style="stop-color:#185086"></stop>			<stop offset="0.3832" style="stop-color:#223B75"></stop>			<stop offset="0.4709" style="stop-color:#252E6B"></stop>			<stop offset="0.5803" style="stop-color:#24316E"></stop>			<stop offset="0.72" style="stop-color:#213C76"></stop>			<stop offset="0.8755" style="stop-color:#174C83"></stop>			<stop offset="1" style="stop-color:#005D92"></stop>		</linearGradient>		<path class="st1" d="M61.15,28.82c0,0,8.3,9.34,13.49,11.42c5.19,2.08,40.48,19.72,40.48,19.72s28.02,9.34,28.02,42.56   c0,0-6.23-5.19-25.95-13.49L80.87,72.41c0,0-16.61-7.27-16.61-25.95C64.26,46.46,64.26,32.97,61.15,28.82z"></path>		<linearGradient id="SVGID_3_" gradientUnits="userSpaceOnUse" x1="67.3738" y1="32.4489" x2="116.1575" y2="32.4489">			<stop offset="0" style="stop-color:#056195"></stop>			<stop offset="0.0896" style="stop-color:#0C5C90"></stop>			<stop offset="0.2231" style="stop-color:#185086"></stop>			<stop offset="0.3832" style="stop-color:#223B75"></stop>			<stop offset="0.4709" style="stop-color:#252E6B"></stop>			<stop offset="0.5803" style="stop-color:#24316E"></stop>			<stop offset="0.72" style="stop-color:#213C76"></stop>			<stop offset="0.8755" style="stop-color:#174C83"></stop>			<stop offset="1" style="stop-color:#005D92"></stop>		</linearGradient>		<linearGradient id="SVGID_4_" gradientUnits="userSpaceOnUse" x1="66.9801" y1="32.7981" x2="116.6575" y2="32.7981">			<stop offset="0" style="stop-color:#056195"></stop>			<stop offset="0.0896" style="stop-color:#0C5C90"></stop>			<stop offset="0.2231" style="stop-color:#185086"></stop>			<stop offset="0.3832" style="stop-color:#223B75"></stop>			<stop offset="0.4709" style="stop-color:#252E6B"></stop>			<stop offset="0.5803" style="stop-color:#24316E"></stop>			<stop offset="0.72" style="stop-color:#213C76"></stop>			<stop offset="0.8755" style="stop-color:#174C83"></stop>			<stop offset="1" style="stop-color:#005D92"></stop>		</linearGradient>		<path class="st2" d="M67.37,11.46c0,0,4.94,5.32,8.03,6.5c3.09,1.18,24.08,11.23,24.08,11.23s16.67,5.32,16.67,24.24   c0,0-3.71-2.96-15.44-7.69l-21.61-9.46c0,0-9.88-4.14-9.88-14.78C69.23,21.51,69.23,13.82,67.37,11.46z"></path>		<linearGradient id="SVGID_5_" gradientUnits="userSpaceOnUse" x1="57.938" y1="122.872" x2="128.1194" y2="122.872">			<stop offset="0" style="stop-color:#056195"></stop>			<stop offset="0.0896" style="stop-color:#0C5C90"></stop>			<stop offset="0.2231" style="stop-color:#185086"></stop>			<stop offset="0.3832" style="stop-color:#223B75"></stop>			<stop offset="0.4709" style="stop-color:#252E6B"></stop>			<stop offset="0.5803" style="stop-color:#24316E"></stop>			<stop offset="0.72" style="stop-color:#213C76"></stop>			<stop offset="0.8755" style="stop-color:#174C83"></stop>			<stop offset="1" style="stop-color:#005D92"></stop>		</linearGradient>		<linearGradient id="SVGID_6_" gradientUnits="userSpaceOnUse" x1="39.2507" y1="122.872" x2="144.6113" y2="122.872">			<stop offset="0" style="stop-color:#056195"></stop>			<stop offset="0.0896" style="stop-color:#0C5C90"></stop>			<stop offset="0.2231" style="stop-color:#185086"></stop>			<stop offset="0.3832" style="stop-color:#223B75"></stop>			<stop offset="0.4709" style="stop-color:#252E6B"></stop>			<stop offset="0.5803" style="stop-color:#24316E"></stop>			<stop offset="0.72" style="stop-color:#213C76"></stop>			<stop offset="0.8755" style="stop-color:#174C83"></stop>			<stop offset="1" style="stop-color:#005D92"></stop>		</linearGradient>		<path class="st3" d="M144.5,106.24c0,0-12.19,2.78-16.5,6.33c-4.32,3.55-36.78,25.98-36.78,25.98s-21.68,20.06-50.79,4.07   c0,0,7.55-2.96,24.32-16.24l32.05-23.84c0,0,14.36-11.06,30.74-2.06C127.54,100.47,139.36,106.97,144.5,106.24z"></path>		<linearGradient id="SVGID_7_" gradientUnits="userSpaceOnUse" x1="96.4309" y1="130.4488" x2="156.7126" y2="130.4488">			<stop offset="0" style="stop-color:#056195"></stop>			<stop offset="0.0896" style="stop-color:#0C5C90"></stop>			<stop offset="0.2231" style="stop-color:#185086"></stop>			<stop offset="0.3832" style="stop-color:#223B75"></stop>			<stop offset="0.4709" style="stop-color:#252E6B"></stop>			<stop offset="0.5803" style="stop-color:#24316E"></stop>			<stop offset="0.72" style="stop-color:#213C76"></stop>			<stop offset="0.8755" style="stop-color:#174C83"></stop>			<stop offset="1" style="stop-color:#005D92"></stop>		</linearGradient>		<linearGradient id="SVGID_8_" gradientUnits="userSpaceOnUse" x1="95.2799" y1="130.4488" x2="156.8343" y2="130.4488">			<stop offset="0" style="stop-color:#056195"></stop>			<stop offset="0.0896" style="stop-color:#0C5C90"></stop>			<stop offset="0.2231" style="stop-color:#185086"></stop>			<stop offset="0.3832" style="stop-color:#223B75"></stop>			<stop offset="0.4709" style="stop-color:#252E6B"></stop>			<stop offset="0.5803" style="stop-color:#24316E"></stop>			<stop offset="0.72" style="stop-color:#213C76"></stop>			<stop offset="0.8755" style="stop-color:#174C83"></stop>			<stop offset="1" style="stop-color:#005D92"></stop>		</linearGradient>		<path class="st4" d="M156.71,120.05c0,0-7.04,1.77-9.57,3.9c-2.52,2.14-21.44,15.7-21.44,15.7s-12.69,12.05-29.27,2.94   c0,0,4.38-1.82,14.17-9.83l18.7-14.39c0,0,8.38-6.67,17.71-1.54C147.01,116.84,153.75,120.54,156.71,120.05z"></path>		<linearGradient id="SVGID_9_" gradientUnits="userSpaceOnUse" x1="31.7131" y1="85.6262" x2="61.2319" y2="85.6262">			<stop offset="0" style="stop-color:#056195"></stop>			<stop offset="0.0896" style="stop-color:#0C5C90"></stop>			<stop offset="0.2231" style="stop-color:#185086"></stop>			<stop offset="0.3832" style="stop-color:#223B75"></stop>			<stop offset="0.4709" style="stop-color:#252E6B"></stop>			<stop offset="0.5803" style="stop-color:#24316E"></stop>			<stop offset="0.72" style="stop-color:#213C76"></stop>			<stop offset="0.8755" style="stop-color:#174C83"></stop>			<stop offset="1" style="stop-color:#005D92"></stop>		</linearGradient>		<linearGradient id="SVGID_10_" gradientUnits="userSpaceOnUse" x1="31.2131" y1="85.2233" x2="61.7319" y2="85.2233">			<stop offset="0" style="stop-color:#056195"></stop>			<stop offset="0.0896" style="stop-color:#0C5C90"></stop>			<stop offset="0.2231" style="stop-color:#185086"></stop>			<stop offset="0.3832" style="stop-color:#223B75"></stop>			<stop offset="0.4709" style="stop-color:#252E6B"></stop>			<stop offset="0.5803" style="stop-color:#24316E"></stop>			<stop offset="0.72" style="stop-color:#213C76"></stop>			<stop offset="0.8755" style="stop-color:#174C83"></stop>			<stop offset="1" style="stop-color:#005D92"></stop>		</linearGradient>		<path class="st5" d="M34.42,139.89c0,0,3.56-11.98,2.59-17.48c-0.97-5.5-4.57-44.8-4.57-44.8s-6.83-28.74,21.4-46.25   c0,0-1.13,8.03,2.21,29.16l5.03,39.63c0,0,2.58,17.94-13.3,27.79C47.78,127.94,36.31,135.05,34.42,139.89z"></path>		<linearGradient id="SVGID_11_" gradientUnits="userSpaceOnUse" x1="16.1041" y1="112.9902" x2="33.5111" y2="112.9902">			<stop offset="0" style="stop-color:#056195"></stop>			<stop offset="0.0896" style="stop-color:#0C5C90"></stop>			<stop offset="0.2231" style="stop-color:#185086"></stop>			<stop offset="0.3832" style="stop-color:#223B75"></stop>			<stop offset="0.4709" style="stop-color:#252E6B"></stop>			<stop offset="0.5803" style="stop-color:#24316E"></stop>			<stop offset="0.72" style="stop-color:#213C76"></stop>			<stop offset="0.8755" style="stop-color:#174C83"></stop>			<stop offset="1" style="stop-color:#005D92"></stop>		</linearGradient>		<linearGradient id="SVGID_12_" gradientUnits="userSpaceOnUse" x1="15.6041" y1="112.5901" x2="34.0111" y2="112.5901">			<stop offset="0" style="stop-color:#056195"></stop>			<stop offset="0.0896" style="stop-color:#0C5C90"></stop>			<stop offset="0.2231" style="stop-color:#185086"></stop>			<stop offset="0.3832" style="stop-color:#223B75"></stop>			<stop offset="0.4709" style="stop-color:#252E6B"></stop>			<stop offset="0.5803" style="stop-color:#24316E"></stop>			<stop offset="0.72" style="stop-color:#213C76"></stop>			<stop offset="0.8755" style="stop-color:#174C83"></stop>			<stop offset="1" style="stop-color:#005D92"></stop>		</linearGradient>		<path class="st6" d="M18.47,144.78c0,0,1.92-7,1.3-10.25c-0.62-3.25-3.15-26.39-3.15-26.39S12.35,91.17,28.43,81.2   c0,0-0.56,4.71,1.6,17.17l3.35,23.35c0,0,1.69,10.58-7.35,16.19C26.03,137.91,19.5,141.96,18.47,144.78z"></path>		<g>			<path class="st0" d="M182.2,111.62h3.71v15.22h-3.71V111.62z"></path>			<path class="st0" d="M206.55,111.62v15.22h-3.71l-6.2-9.39v9.39h-3.71v-15.22h3.71l6.2,9.43v-9.43H206.55z"></path>			<path class="st0" d="M219.08,126.99c-3.27,0-5.83-1.63-5.94-4.71h3.95c0.11,1.17,0.85,1.74,1.89,1.74c1.08,0,1.78-0.54,1.78-1.43    c0-2.82-7.61-1.3-7.57-6.7c0-2.88,2.36-4.49,5.55-4.49c3.32,0,5.55,1.65,5.7,4.55h-4.01c-0.07-0.98-0.76-1.56-1.76-1.58    c-0.89-0.02-1.56,0.43-1.56,1.39c0,2.65,7.52,1.45,7.52,6.55C224.63,124.87,222.63,126.99,219.08,126.99z"></path>			<path class="st0" d="M230.41,111.62h11.77v2.97h-4.03v12.25h-3.71v-12.25h-4.03V111.62z"></path>			<path class="st0" d="M248.38,111.62h3.71v15.22h-3.71V111.62z"></path>			<path class="st0" d="M258.29,111.62h11.77v2.97h-4.03v12.25h-3.71v-12.25h-4.03V111.62z"></path>			<path class="st0" d="M276.19,111.62h3.71v9.11c0,1.8,0.89,2.84,2.65,2.84s2.69-1.04,2.69-2.84v-9.11h3.71v9.09    c0,4.21-2.95,6.29-6.46,6.29c-3.53,0-6.29-2.08-6.29-6.29V111.62z"></path>			<path class="st0" d="M295.05,111.62h11.77v2.97h-4.03v12.25h-3.71v-12.25h-4.03V111.62z"></path>			<path class="st0" d="M322.34,114.59h-5.62v3.08h4.97v2.86h-4.97v3.34h5.62v2.97h-9.32v-15.22h9.32V114.59z"></path>			<path class="st0" d="M345.21,126.99c-4.31,0-7.83-3.23-7.83-7.81s3.51-7.78,7.83-7.78c4.34,0,7.78,3.21,7.78,7.78    S349.52,126.99,345.21,126.99z M345.21,123.61c2.43,0,4.01-1.76,4.01-4.42c0-2.71-1.58-4.42-4.01-4.42    c-2.47,0-4.03,1.71-4.03,4.42C341.17,121.85,342.74,123.61,345.21,123.61z"></path>			<path class="st0" d="M359.38,111.62h9.91v2.97h-6.2v3.21h4.64v2.88h-4.64v6.16h-3.71V111.62z"></path>			<path class="st0" d="M384.5,111.62h4.38l4.27,10.54l4.23-10.54h4.36v15.22h-3.71v-9.13l-3.4,9.13h-2.99l-3.43-9.15v9.15h-3.71    V111.62z"></path>			<path class="st0" d="M418.06,114.59h-5.62v3.08h4.97v2.86h-4.97v3.34h5.62v2.97h-9.32v-15.22h9.32V114.59z"></path>			<path class="st0" d="M438.48,119.23c0,4.51-3.12,7.61-7.98,7.61h-5.7v-15.22h5.7C435.36,111.62,438.48,114.7,438.48,119.23z     M430.26,123.63c2.8,0,4.44-1.6,4.44-4.4c0-2.8-1.65-4.45-4.44-4.45h-1.76v8.85H430.26z"></path>			<path class="st0" d="M444.89,111.62h3.71v15.22h-3.71V111.62z"></path>			<path class="st0" d="M462.65,111.44c3.62,0,6.35,2.04,7.22,5.33h-4.08c-0.63-1.3-1.78-1.95-3.19-1.95    c-2.28,0-3.84,1.69-3.84,4.38c0,2.69,1.56,4.38,3.84,4.38c1.41,0,2.56-0.65,3.19-1.95h4.08c-0.87,3.3-3.6,5.31-7.22,5.31    c-4.49,0-7.65-3.19-7.65-7.74C454.99,114.65,458.16,111.44,462.65,111.44z"></path>			<path class="st0" d="M485.95,124.15h-5.68l-0.91,2.69h-3.88l5.51-15.22h4.29l5.51,15.22h-3.92L485.95,124.15z M483.11,115.72    l-1.87,5.57h3.75L483.11,115.72z"></path>			<path class="st0" d="M500.49,111.62v12.36h4.86v2.86h-8.56v-15.22H500.49z"></path>			<path class="st0" d="M525.9,126.99c-3.27,0-5.83-1.63-5.94-4.71h3.95c0.11,1.17,0.84,1.74,1.89,1.74c1.08,0,1.78-0.54,1.78-1.43    c0-2.82-7.61-1.3-7.57-6.7c0-2.88,2.36-4.49,5.55-4.49c3.32,0,5.55,1.65,5.7,4.55h-4.01c-0.07-0.98-0.76-1.56-1.76-1.58    c-0.89-0.02-1.56,0.43-1.56,1.39c0,2.65,7.52,1.45,7.52,6.55C531.45,124.87,529.45,126.99,525.9,126.99z"></path>			<path class="st0" d="M545.08,111.44c3.62,0,6.35,2.04,7.22,5.33h-4.08c-0.63-1.3-1.78-1.95-3.19-1.95    c-2.28,0-3.84,1.69-3.84,4.38c0,2.69,1.56,4.38,3.84,4.38c1.41,0,2.56-0.65,3.19-1.95h4.08c-0.87,3.3-3.6,5.31-7.22,5.31    c-4.49,0-7.65-3.19-7.65-7.74C537.42,114.65,540.59,111.44,545.08,111.44z"></path>			<path class="st0" d="M558.91,111.62h3.71v15.22h-3.71V111.62z"></path>			<path class="st0" d="M578.96,114.59h-5.62v3.08h4.97v2.86h-4.97v3.34h5.62v2.97h-9.32v-15.22h9.32V114.59z"></path>			<path class="st0" d="M599.31,111.62v15.22h-3.71l-6.2-9.39v9.39h-3.71v-15.22h3.71l6.2,9.43v-9.43H599.31z"></path>			<path class="st0" d="M613.36,111.44c3.62,0,6.35,2.04,7.22,5.33h-4.08c-0.63-1.3-1.78-1.95-3.19-1.95    c-2.28,0-3.84,1.69-3.84,4.38c0,2.69,1.56,4.38,3.84,4.38c1.41,0,2.56-0.65,3.19-1.95h4.08c-0.87,3.3-3.6,5.31-7.22,5.31    c-4.49,0-7.65-3.19-7.65-7.74C605.7,114.65,608.87,111.44,613.36,111.44z"></path>			<path class="st0" d="M636.51,114.59h-5.62v3.08h4.97v2.86h-4.97v3.34h5.62v2.97h-9.32v-15.22h9.32V114.59z"></path>			<path class="st0" d="M661.65,124.15h-5.68l-0.91,2.69h-3.88l5.51-15.22h4.29l5.51,15.22h-3.92L661.65,124.15z M658.81,115.72    l-1.87,5.57h3.75L658.81,115.72z"></path>			<path class="st0" d="M686.1,111.62v15.22h-3.71l-6.2-9.39v9.39h-3.71v-15.22h3.71l6.2,9.43v-9.43H686.1z"></path>			<path class="st0" d="M706.8,119.23c0,4.51-3.12,7.61-7.98,7.61h-5.7v-15.22h5.7C703.68,111.62,706.8,114.7,706.8,119.23z     M698.59,123.63c2.8,0,4.44-1.6,4.44-4.4c0-2.8-1.65-4.45-4.44-4.45h-1.76v8.85H698.59z"></path>			<path class="st0" d="M728.37,111.62c3.73,0,5.59,2.15,5.59,4.79c0,1.91-1.04,3.71-3.38,4.4l3.51,6.03h-4.19l-3.17-5.75h-0.89    v5.75h-3.71v-15.22H728.37z M728.15,114.7h-2.3v3.77h2.3c1.39,0,2.04-0.72,2.04-1.91C730.19,115.43,729.54,114.7,728.15,114.7z"></path>			<path class="st0" d="M749.94,114.59h-5.62v3.08h4.97v2.86h-4.97v3.34h5.62v2.97h-9.32v-15.22h9.32V114.59z"></path>			<path class="st0" d="M762.18,126.99c-3.27,0-5.83-1.63-5.94-4.71h3.95c0.11,1.17,0.85,1.74,1.89,1.74c1.08,0,1.78-0.54,1.78-1.43    c0-2.82-7.61-1.3-7.57-6.7c0-2.88,2.36-4.49,5.55-4.49c3.32,0,5.55,1.65,5.7,4.55h-4.01c-0.07-0.98-0.76-1.56-1.76-1.58    c-0.89-0.02-1.56,0.43-1.56,1.39c0,2.65,7.52,1.45,7.52,6.55C767.73,124.87,765.74,126.99,762.18,126.99z"></path>			<path class="st0" d="M783.66,114.59h-5.62v3.08h4.97v2.86h-4.97v3.34h5.62v2.97h-9.32v-15.22h9.32V114.59z"></path>			<path class="st0" d="M799.88,124.15h-5.68l-0.91,2.69h-3.88l5.51-15.22h4.29l5.51,15.22h-3.92L799.88,124.15z M797.04,115.72    l-1.87,5.57h3.75L797.04,115.72z"></path>			<path class="st0" d="M816.93,111.62c3.73,0,5.59,2.15,5.59,4.79c0,1.91-1.04,3.71-3.38,4.4l3.51,6.03h-4.19l-3.17-5.75h-0.89    v5.75h-3.71v-15.22H816.93z M816.72,114.7h-2.3v3.77h2.3c1.39,0,2.04-0.72,2.04-1.91C818.76,115.43,818.11,114.7,816.72,114.7z"></path>			<path class="st0" d="M836.2,111.44c3.62,0,6.35,2.04,7.22,5.33h-4.08c-0.63-1.3-1.78-1.95-3.19-1.95c-2.28,0-3.84,1.69-3.84,4.38    c0,2.69,1.56,4.38,3.84,4.38c1.41,0,2.56-0.65,3.19-1.95h4.08c-0.87,3.3-3.6,5.31-7.22,5.31c-4.49,0-7.65-3.19-7.65-7.74    C828.55,114.65,831.72,111.44,836.2,111.44z"></path>			<path class="st0" d="M859.51,120.57h-5.77v6.27h-3.71v-15.22h3.71v5.96h5.77v-5.96h3.71v15.22h-3.71V120.57z"></path>		</g>	</g>	<g>		<g>			<path class="st0" d="M855.07,53.7c-4.49,0-8.14-3.65-8.14-8.14c0-4.49,3.65-8.14,8.14-8.14c4.49,0,8.14,3.65,8.14,8.14    C863.21,50.05,859.56,53.7,855.07,53.7z M855.07,37.99c-4.17,0-7.57,3.4-7.57,7.57s3.4,7.57,7.57,7.57c4.17,0,7.57-3.4,7.57-7.57    S859.25,37.99,855.07,37.99z"></path>		</g>		<g>			<path class="st0" d="M855.47,40.09c2.57,0,3.8,1.43,3.8,3.22c0,1.4-0.77,2.73-2.6,3.14l2.74,4.58h-1.71l-2.6-4.47h-1.73v4.47    h-1.43V40.09H855.47z M855.47,41.27h-2.1v4.14h2.1c1.62,0,2.32-0.88,2.32-2.1C857.79,42.07,857.1,41.27,855.47,41.27z"></path>		</g>	</g></g></svg>