<svg xmlns="http://www.w3.org/2000/svg" xmlns:xlink="http://www.w3.org/1999/xlink" id="Layer_1" x="0px" y="0px" viewBox="0 0 887 168" style="enable-background:new 0 0 887 168;" xml:space="preserve"><style type="text/css">	.st0{fill:url(#SVGID_1_);stroke:url(#SVGID_2_);stroke-miterlimit:10;}	.st1{fill:url(#SVGID_3_);stroke:url(#SVGID_4_);stroke-miterlimit:10;}	.st2{fill:url(#SVGID_5_);stroke:url(#SVGID_6_);stroke-miterlimit:10;}	.st3{fill:url(#SVGID_7_);stroke:url(#SVGID_8_);stroke-miterlimit:10;}	.st4{fill:url(#SVGID_9_);stroke:url(#SVGID_10_);stroke-miterlimit:10;}	.st5{fill:url(#SVGID_11_);stroke:url(#SVGID_12_);stroke-miterlimit:10;}	.st6{fill:#333333;}</style><g>	<g>		<linearGradient id="SVGID_1_" gradientUnits="userSpaceOnUse" x1="122.5529" y1="54.0212" x2="93.9366" y2="97.9054">			<stop offset="0" style="stop-color:#E9208E"></stop>			<stop offset="0.0386" style="stop-color:#DE208B"></stop>			<stop offset="0.1818" style="stop-color:#BA2280"></stop>			<stop offset="0.3156" style="stop-color:#9F2378"></stop>			<stop offset="0.4354" style="stop-color:#902474"></stop>			<stop offset="0.5291" style="stop-color:#8A2472"></stop>			<stop offset="0.6619" style="stop-color:#AF257D"></stop>			<stop offset="0.8031" style="stop-color:#D02587"></stop>			<stop offset="0.921" style="stop-color:#E5268D"></stop>			<stop offset="1" style="stop-color:#EC268F"></stop>		</linearGradient>		<linearGradient id="SVGID_2_" gradientUnits="userSpaceOnUse" x1="71.6178" y1="70.1651" x2="153.0131" y2="70.1651">			<stop offset="0" style="stop-color:#EC268F"></stop>			<stop offset="0.079" style="stop-color:#E5268D"></stop>			<stop offset="0.1969" style="stop-color:#D02587"></stop>			<stop offset="0.3381" style="stop-color:#AF257D"></stop>			<stop offset="0.4709" style="stop-color:#8A2472"></stop>			<stop offset="0.5646" style="stop-color:#902474"></stop>			<stop offset="0.6844" style="stop-color:#9F2378"></stop>			<stop offset="0.8182" style="stop-color:#BA2280"></stop>			<stop offset="0.9614" style="stop-color:#DE208B"></stop>			<stop offset="1" style="stop-color:#E9208E"></stop>		</linearGradient>		<path class="st0" d="M72.02,33.63c0,0,8.15,9.17,13.25,11.21C90.36,46.87,125,64.19,125,64.19s27.51,9.17,27.51,41.78   c0,0-6.11-5.09-25.47-13.25l-35.66-16.3c0,0-16.3-7.13-16.3-25.47C75.07,50.95,75.07,37.7,72.02,33.63z"></path>		<linearGradient id="SVGID_3_" gradientUnits="userSpaceOnUse" x1="78.1314" y1="37.1917" x2="126.021" y2="37.1917">			<stop offset="0" style="stop-color:#E9208E"></stop>			<stop offset="0.0386" style="stop-color:#DE208B"></stop>			<stop offset="0.1818" style="stop-color:#BA2280"></stop>			<stop offset="0.3156" style="stop-color:#9F2378"></stop>			<stop offset="0.4354" style="stop-color:#902474"></stop>			<stop offset="0.5291" style="stop-color:#8A2472"></stop>			<stop offset="0.6619" style="stop-color:#AF257D"></stop>			<stop offset="0.8031" style="stop-color:#D02587"></stop>			<stop offset="0.921" style="stop-color:#E5268D"></stop>			<stop offset="1" style="stop-color:#EC268F"></stop>		</linearGradient>		<linearGradient id="SVGID_4_" gradientUnits="userSpaceOnUse" x1="77.7377" y1="37.5409" x2="126.521" y2="37.5409">			<stop offset="0" style="stop-color:#EC268F"></stop>			<stop offset="0.079" style="stop-color:#E5268D"></stop>			<stop offset="0.1969" style="stop-color:#D02587"></stop>			<stop offset="0.3381" style="stop-color:#AF257D"></stop>			<stop offset="0.4709" style="stop-color:#8A2472"></stop>			<stop offset="0.5646" style="stop-color:#902474"></stop>			<stop offset="0.6844" style="stop-color:#9F2378"></stop>			<stop offset="0.8182" style="stop-color:#BA2280"></stop>			<stop offset="0.9614" style="stop-color:#DE208B"></stop>			<stop offset="1" style="stop-color:#E9208E"></stop>		</linearGradient>		<path class="st1" d="M78.13,16.59c0,0,4.85,5.22,7.88,6.38S109.65,34,109.65,34s16.37,5.22,16.37,23.8c0,0-3.64-2.9-15.15-7.55   l-21.22-9.29c0,0-9.7-4.06-9.7-14.51C79.95,26.45,79.95,18.91,78.13,16.59z"></path>		<linearGradient id="SVGID_5_" gradientUnits="userSpaceOnUse" x1="128.8277" y1="137.2577" x2="75.62" y2="117.9991">			<stop offset="0" style="stop-color:#E9208E"></stop>			<stop offset="0.0386" style="stop-color:#DE208B"></stop>			<stop offset="0.1818" style="stop-color:#BA2280"></stop>			<stop offset="0.3156" style="stop-color:#9F2378"></stop>			<stop offset="0.4354" style="stop-color:#902474"></stop>			<stop offset="0.5291" style="stop-color:#8A2472"></stop>			<stop offset="0.6619" style="stop-color:#AF257D"></stop>			<stop offset="0.8031" style="stop-color:#D02587"></stop>			<stop offset="0.921" style="stop-color:#E5268D"></stop>			<stop offset="1" style="stop-color:#EC268F"></stop>		</linearGradient>		<linearGradient id="SVGID_6_" gradientUnits="userSpaceOnUse" x1="50.5022" y1="125.9575" x2="153.9553" y2="125.9575">			<stop offset="0" style="stop-color:#EC268F"></stop>			<stop offset="0.079" style="stop-color:#E5268D"></stop>			<stop offset="0.1969" style="stop-color:#D02587"></stop>			<stop offset="0.3381" style="stop-color:#AF257D"></stop>			<stop offset="0.4709" style="stop-color:#8A2472"></stop>			<stop offset="0.5646" style="stop-color:#902474"></stop>			<stop offset="0.6844" style="stop-color:#9F2378"></stop>			<stop offset="0.8182" style="stop-color:#BA2280"></stop>			<stop offset="0.9614" style="stop-color:#DE208B"></stop>			<stop offset="1" style="stop-color:#E9208E"></stop>		</linearGradient>		<path class="st2" d="M153.84,109.63c0,0-11.96,2.73-16.2,6.21c-4.24,3.48-36.1,25.51-36.1,25.51s-21.28,19.7-49.86,3.99   c0,0,7.41-2.9,23.88-15.95l31.46-23.41c0,0,14.1-10.85,30.18-2.02C137.19,103.96,148.8,110.34,153.84,109.63z"></path>		<linearGradient id="SVGID_7_" gradientUnits="userSpaceOnUse" x1="106.6559" y1="133.3954" x2="165.8328" y2="133.3954">			<stop offset="0" style="stop-color:#E9208E"></stop>			<stop offset="0.0386" style="stop-color:#DE208B"></stop>			<stop offset="0.1818" style="stop-color:#BA2280"></stop>			<stop offset="0.3156" style="stop-color:#9F2378"></stop>			<stop offset="0.4354" style="stop-color:#902474"></stop>			<stop offset="0.5291" style="stop-color:#8A2472"></stop>			<stop offset="0.6619" style="stop-color:#AF257D"></stop>			<stop offset="0.8031" style="stop-color:#D02587"></stop>			<stop offset="0.921" style="stop-color:#E5268D"></stop>			<stop offset="1" style="stop-color:#EC268F"></stop>		</linearGradient>		<linearGradient id="SVGID_8_" gradientUnits="userSpaceOnUse" x1="105.5049" y1="133.3954" x2="165.9545" y2="133.3954">			<stop offset="0" style="stop-color:#EC268F"></stop>			<stop offset="0.079" style="stop-color:#E5268D"></stop>			<stop offset="0.1969" style="stop-color:#D02587"></stop>			<stop offset="0.3381" style="stop-color:#AF257D"></stop>			<stop offset="0.4709" style="stop-color:#8A2472"></stop>			<stop offset="0.5646" style="stop-color:#902474"></stop>			<stop offset="0.6844" style="stop-color:#9F2378"></stop>			<stop offset="0.8182" style="stop-color:#BA2280"></stop>			<stop offset="0.9614" style="stop-color:#DE208B"></stop>			<stop offset="1" style="stop-color:#E9208E"></stop>		</linearGradient>		<path class="st3" d="M165.83,123.19c0,0-6.91,1.73-9.39,3.83c-2.48,2.1-21.05,15.41-21.05,15.41s-12.46,11.83-28.74,2.89   c0,0,4.29-1.79,13.91-9.65l18.36-14.12c0,0,8.23-6.54,17.39-1.51C156.31,120.03,162.92,123.66,165.83,123.19z"></path>		<linearGradient id="SVGID_9_" gradientUnits="userSpaceOnUse" x1="43.1243" y1="89.3943" x2="72.1021" y2="89.3943">			<stop offset="0" style="stop-color:#E9208E"></stop>			<stop offset="0.0386" style="stop-color:#DE208B"></stop>			<stop offset="0.1818" style="stop-color:#BA2280"></stop>			<stop offset="0.3156" style="stop-color:#9F2378"></stop>			<stop offset="0.4354" style="stop-color:#902474"></stop>			<stop offset="0.5291" style="stop-color:#8A2472"></stop>			<stop offset="0.6619" style="stop-color:#AF257D"></stop>			<stop offset="0.8031" style="stop-color:#D02587"></stop>			<stop offset="0.921" style="stop-color:#E5268D"></stop>			<stop offset="1" style="stop-color:#EC268F"></stop>		</linearGradient>		<linearGradient id="SVGID_10_" gradientUnits="userSpaceOnUse" x1="42.6243" y1="88.9915" x2="72.6021" y2="88.9915">			<stop offset="0" style="stop-color:#EC268F"></stop>			<stop offset="0.079" style="stop-color:#E5268D"></stop>			<stop offset="0.1969" style="stop-color:#D02587"></stop>			<stop offset="0.3381" style="stop-color:#AF257D"></stop>			<stop offset="0.4709" style="stop-color:#8A2472"></stop>			<stop offset="0.5646" style="stop-color:#902474"></stop>			<stop offset="0.6844" style="stop-color:#9F2378"></stop>			<stop offset="0.8182" style="stop-color:#BA2280"></stop>			<stop offset="0.9614" style="stop-color:#DE208B"></stop>			<stop offset="1" style="stop-color:#E9208E"></stop>		</linearGradient>		<path class="st4" d="M45.78,142.66c0,0,3.5-11.76,2.54-17.16s-4.49-43.97-4.49-43.97s-6.71-28.21,21-45.4   c0,0-1.11,7.88,2.17,28.63l4.94,38.9c0,0,2.53,17.61-13.06,27.28C58.89,130.94,47.64,137.92,45.78,142.66z"></path>		<linearGradient id="SVGID_11_" gradientUnits="userSpaceOnUse" x1="27.8014" y1="116.2568" x2="44.8893" y2="116.2568">			<stop offset="0" style="stop-color:#E9208E"></stop>			<stop offset="0.0386" style="stop-color:#DE208B"></stop>			<stop offset="0.1818" style="stop-color:#BA2280"></stop>			<stop offset="0.3156" style="stop-color:#9F2378"></stop>			<stop offset="0.4354" style="stop-color:#902474"></stop>			<stop offset="0.5291" style="stop-color:#8A2472"></stop>			<stop offset="0.6619" style="stop-color:#AF257D"></stop>			<stop offset="0.8031" style="stop-color:#D02587"></stop>			<stop offset="0.921" style="stop-color:#E5268D"></stop>			<stop offset="1" style="stop-color:#EC268F"></stop>		</linearGradient>		<linearGradient id="SVGID_12_" gradientUnits="userSpaceOnUse" x1="27.3014" y1="115.8567" x2="45.3893" y2="115.8567">			<stop offset="0" style="stop-color:#EC268F"></stop>			<stop offset="0.079" style="stop-color:#E5268D"></stop>			<stop offset="0.1969" style="stop-color:#D02587"></stop>			<stop offset="0.3381" style="stop-color:#AF257D"></stop>			<stop offset="0.4709" style="stop-color:#8A2472"></stop>			<stop offset="0.5646" style="stop-color:#902474"></stop>			<stop offset="0.6844" style="stop-color:#9F2378"></stop>			<stop offset="0.8182" style="stop-color:#BA2280"></stop>			<stop offset="0.9614" style="stop-color:#DE208B"></stop>			<stop offset="1" style="stop-color:#E9208E"></stop>		</linearGradient>		<path class="st5" d="M30.12,147.47c0,0,1.88-6.87,1.27-10.06s-3.09-25.9-3.09-25.9s-4.19-16.66,11.6-26.45   c0,0-0.55,4.62,1.57,16.86l3.29,22.93c0,0,1.66,10.38-7.22,15.89C37.55,140.72,31.13,144.7,30.12,147.47z"></path>	</g>	<g>		<path class="st6" d="M208.97,65.94c5.81,3.42,11.94,6.76,11.94,14.41c0,7.32-5.33,13.45-16.16,13.45c-3.58,0-6.69-0.64-10.82-2.71   c-0.56-0.32-0.64-0.8-0.72-1.51l-1.19-10.35c-0.16-0.48,0.79-0.56,0.88-0.16c0.88,6.29,4.93,13.61,13.61,13.61   c4.94,0,10.03-2.39,10.03-9.55c0-7.72-5.81-11.06-11.62-14.49c-5.65-3.34-11.3-6.61-11.3-14.09c0-8.28,7.16-12.34,14.33-12.34   c2.71,0,5.73,0.56,9.07,1.91c0.8,0.32,1.19,0.8,1.19,1.35l0.72,8.44c0,0.48-0.88,0.48-0.96,0c-0.4-4.62-3.42-10.66-11.06-10.66   c-6.92,0-9.23,4.93-9.23,9.47C197.67,59.5,203.24,62.6,208.97,65.94z"></path>		<path class="st6" d="M279.88,92.85h-9.23c-2.79,0-10.82-9.87-21.41-25.95c-1.51,0.4-3.18,0.64-4.86,0.64   c-0.96,0-2.39-0.08-3.42-0.16V86.4c0,4.62,0.96,5.49,7.08,5.49c0.32,0,0.32,0.96,0,0.96c-2.55,0-5.57-0.16-9.23-0.16   c-3.42,0-6.69,0.16-9.23,0.16c-0.24,0-0.24-0.96,0-0.96c6.05,0,7.24-0.88,7.24-5.49V49.55c0-4.54-1.04-5.49-7.08-5.49   c-0.32,0-0.32-0.96,0-0.96c2.47,0,5.65,0.24,9.07,0.24c2.71,0,6.92-0.48,9.31-0.48c8.52,0,12.97,3.82,12.97,9.95   c0,5.17-3.26,9.95-8.12,12.57c13.45,19.82,19.98,26.5,26.9,26.5C280.2,91.89,280.2,92.85,279.88,92.85z M245.74,65.78   c7.72,0,10.9-3.02,10.9-10.27c0-8.6-4.54-11.62-10.35-11.62c-3.9,0-5.33,0.16-5.33,5.81v15.76   C242.47,65.63,244.3,65.78,245.74,65.78z"></path>		<path class="st6" d="M302.32,91.89c0.24,0,0.24,0.96,0,0.96c-2.55,0-5.57-0.16-9.31-0.16c-3.5,0-6.69,0.16-9.23,0.16   c-0.32,0-0.32-0.96,0-0.96c6.05,0,7.16-0.88,7.16-5.49V49.55c0-4.54-1.11-5.49-7.16-5.49c-0.32,0-0.32-0.96,0-0.96   c2.55,0,5.73,0.24,9.23,0.24c3.74,0,6.84-0.24,9.31-0.24c0.24,0,0.24,0.96,0,0.96c-6.05,0-7.08,1.12-7.08,5.65V86.4   C295.24,91.02,296.19,91.89,302.32,91.89z"></path>		<path class="st6" d="M368.14,65.94c5.81,3.42,11.94,6.76,11.94,14.41c0,7.32-5.33,13.45-16.16,13.45c-3.58,0-6.69-0.64-10.82-2.71   c-0.56-0.32-0.64-0.8-0.72-1.51l-1.19-10.35c-0.16-0.48,0.8-0.56,0.88-0.16c0.88,6.29,4.93,13.61,13.61,13.61   c4.93,0,10.03-2.39,10.03-9.55c0-7.72-5.81-11.06-11.62-14.49c-5.65-3.34-11.3-6.61-11.3-14.09c0-8.28,7.16-12.34,14.33-12.34   c2.71,0,5.73,0.56,9.07,1.91c0.79,0.32,1.19,0.8,1.19,1.35l0.72,8.44c0,0.48-0.88,0.48-0.96,0c-0.4-4.62-3.42-10.66-11.06-10.66   c-6.92,0-9.23,4.93-9.23,9.47C356.84,59.5,362.41,62.6,368.14,65.94z"></path>		<path class="st6" d="M442.55,92.85c-2.47,0-5.73-0.16-9.15-0.16c-3.66,0-6.77,0.16-9.23,0.16c-0.32,0-0.32-0.96,0-0.96   c6.13,0,7.08-0.88,7.08-5.49V67.7H399.5v18.7c0,4.62,0.96,5.49,7.08,5.49c0.24,0,0.24,0.96,0,0.96c-2.55,0-5.57-0.16-9.23-0.16   c-3.42,0-6.69,0.16-9.23,0.16c-0.24,0-0.24-0.96,0-0.96c6.05,0,7.16-0.88,7.16-5.49V49.55c0-4.54-1.03-5.49-7.08-5.49   c-0.24,0-0.24-0.96,0-0.96c2.55,0,5.73,0.24,9.15,0.24c3.66,0,6.77-0.24,9.23-0.24c0.24,0,0.24,0.96,0,0.96   c-6.05,0-7.08,1.12-7.08,5.65v16.48h31.76V49.71c0-4.54-0.96-5.65-7.08-5.65c-0.32,0-0.32-0.96,0-0.96c2.47,0,5.57,0.24,9.23,0.24   c3.42,0,6.69-0.24,9.15-0.24c0.32,0,0.32,0.96,0,0.96c-6.05,0-7.16,0.96-7.16,5.49V86.4c0,4.62,1.11,5.49,7.16,5.49   C442.87,91.89,442.87,92.85,442.55,92.85z"></path>		<path class="st6" d="M501.61,92.85c-2.94,0-6.21-0.32-9.07-0.32c-3.26,0-5.33,0.32-8.2,0.32c-0.48,0-0.48-0.96,0-0.96   c5.97,0,7.24-1.27,5.25-5.73l-9.47-20.29h-15.2l-7.16,17.19c-2.71,6.53-0.48,8.83,6.77,8.83c0.48,0,0.48,0.96,0,0.96   c-3.18,0-5.33-0.32-9.39-0.32c-3.74,0-5.41,0.32-8.6,0.32c-0.48,0-0.48-0.96,0-0.96c4.3,0,6.53-1.91,9.71-9.55l16.63-40.03   c0.16-0.32,0.88-0.32,0.96,0l18.46,39.63c3.66,8.04,5.73,9.95,9.31,9.95C502.01,91.89,502.01,92.85,501.61,92.85z M479.48,64.35   l-7.4-15.76l-6.53,15.76H479.48z"></path>		<path class="st6" d="M558.35,44.06c-4.54,0-6.21,1.99-6.21,7.4v42.26c0,0.24-0.72,0.32-0.96,0.16l-35.97-44.25   c-0.48-0.56-0.96-1.12-1.35-1.51v36.45c0,5.41,1.59,7.32,6.05,7.32c0.32,0,0.32,0.96,0,0.96c-1.99,0-4.14-0.16-6.77-0.16   c-2.55,0-4.93,0.16-7,0.16c-0.24,0-0.24-0.96,0-0.96c4.62,0,5.97-1.91,5.97-7.32V46.45c-2.15-1.83-3.98-2.39-5.73-2.39   c-0.32,0-0.32-0.96,0-0.96c1.75,0,3.82,0.16,5.33,0.16c1.51,0,2.94-0.16,3.58-0.16c1.35,0,1.19,1.12,3.66,4.14l31.44,39.08V51.46   c0-5.41-1.43-7.4-5.89-7.4c-0.24,0-0.24-0.96,0-0.96c2.07,0,4.22,0.24,6.84,0.24c2.47,0,5.01-0.24,7-0.24   C558.67,43.1,558.67,44.06,558.35,44.06z"></path>		<path class="st6" d="M625.45,92.85c-2.55,0-5.73-0.16-9.23-0.16c-3.26,0-6.05,0.16-8.28,0.16c-0.24,0-0.24-0.96,0-0.96   c5.33,0,6.37-0.88,6.13-5.49l-1.35-37.01l-18.62,42.9c-0.16,0.4-1.12,0.4-1.35,0l-19.42-42.58c0-0.08-0.08-0.08-0.08-0.16   l-0.64,35.02c-0.08,5.41,1.35,7.32,6.69,7.32c0.24,0,0.24,0.96,0,0.96c-2.31,0-4.78-0.16-7.72-0.16c-2.55,0-4.93,0.16-7,0.16   c-0.24,0-0.24-0.96,0-0.96c4.46,0,6.13-1.91,6.21-7.32l0.8-37.73c-1.67-1.91-3.74-2.79-6.45-2.79c-0.24,0-0.24-0.96,0-0.96   c1.59,0,3.58,0.16,4.78,0.16c1.43,0,2.87-0.16,3.5-0.16c1.43,0,1.99,0.56,3.66,4.14l17.91,38.68l17.83-40.83   c0.56-1.19,1.51-1.99,2.39-1.99c0.48,0,1.59,0.16,3.02,0.16c2.71,0,4.14-0.16,6.05-0.16c0.24,0,0.24,0.96,0,0.96   c-5.17,0-7.64,0.88-7.48,5.33l1.51,37.01c0.16,4.62,1.11,5.49,7.16,5.49C625.76,91.89,625.76,92.85,625.45,92.85z"></path>		<path class="st6" d="M666.83,44.06c-0.32,0-0.32-0.96,0-0.96c2.31,0,4.7,0.24,7.72,0.24c2.47,0,5.01-0.24,7.08-0.24   c0.24,0,0.24,0.96,0,0.96c-4.3,0-6.29,2.31-6.29,7.4v22.76c0,12.58-7.4,19.66-18.54,19.66c-11.86,0-19.42-7.48-19.42-18.94V49.55   c0-4.54-1.03-5.49-7.08-5.49c-0.24,0-0.24-0.96,0-0.96c2.55,0,5.65,0.24,9.15,0.24c3.58,0,6.76-0.24,9.15-0.24   c0.32,0,0.32,0.96,0,0.96c-6.05,0-7,1.12-7,5.65v22.44c0,12.5,6.13,19.42,16.63,19.42c9.71,0,15.36-6.53,15.36-17.27V51.46   C673.59,46.37,671.44,44.06,666.83,44.06z"></path>		<path class="st6" d="M688.24,68.57c0-15.68,12.89-26.34,30.32-26.34c5.09,0,10.03,1.04,13.13,3.02c0.96,0.72,0.79,0.96,0.88,1.83   l0.96,8.36c0,0.24-0.88,0.48-0.96,0.08c-1.99-7.64-8.2-11.62-17.27-11.62c-14.17,0-22.12,8.36-22.12,21.89   c0,15.6,10.74,26.66,25.23,26.66c8.04,0,11.14-1.43,11.14-9.63c0-7.64-0.64-8.52-9.31-8.52c-0.64,0-0.64-1.27-0.08-1.27   c6.61,0.48,11.54,0.48,17.51,0.16c0.48,0,0.56,1.11,0,1.11c-3.98-0.08-4.3,0.88-4.3,9.31c0,5.33,0.56,5.73,0.56,7   c0,0.64-0.16,0.72-0.88,0.96c-5.33,1.27-11.3,2.23-16.55,2.23C698.66,93.8,688.24,82.58,688.24,68.57z"></path>		<path class="st6" d="M799.18,92.85c-2.47,0-5.73-0.16-9.15-0.16c-3.66,0-6.77,0.16-9.23,0.16c-0.32,0-0.32-0.96,0-0.96   c6.13,0,7.08-0.88,7.08-5.49V67.7h-31.76v18.7c0,4.62,0.96,5.49,7.08,5.49c0.24,0,0.24,0.96,0,0.96c-2.55,0-5.57-0.16-9.23-0.16   c-3.42,0-6.69,0.16-9.23,0.16c-0.24,0-0.24-0.96,0-0.96c6.05,0,7.16-0.88,7.16-5.49V49.55c0-4.54-1.04-5.49-7.08-5.49   c-0.24,0-0.24-0.96,0-0.96c2.55,0,5.73,0.24,9.15,0.24c3.66,0,6.77-0.24,9.23-0.24c0.24,0,0.24,0.96,0,0.96   c-6.05,0-7.08,1.12-7.08,5.65v16.48h31.76V49.71c0-4.54-0.96-5.65-7.08-5.65c-0.32,0-0.32-0.96,0-0.96c2.47,0,5.57,0.24,9.23,0.24   c3.42,0,6.69-0.24,9.15-0.24c0.32,0,0.32,0.96,0,0.96c-6.05,0-7.16,0.96-7.16,5.49V86.4c0,4.62,1.11,5.49,7.16,5.49   C799.5,91.89,799.5,92.85,799.18,92.85z"></path>		<path class="st6" d="M858.24,92.85c-2.94,0-6.21-0.32-9.07-0.32c-3.26,0-5.33,0.32-8.2,0.32c-0.48,0-0.48-0.96,0-0.96   c5.97,0,7.24-1.27,5.25-5.73l-9.47-20.29h-15.2l-7.16,17.19c-2.71,6.53-0.48,8.83,6.76,8.83c0.48,0,0.48,0.96,0,0.96   c-3.18,0-5.33-0.32-9.39-0.32c-3.74,0-5.41,0.32-8.6,0.32c-0.48,0-0.48-0.96,0-0.96c4.3,0,6.53-1.91,9.71-9.55l16.63-40.03   c0.16-0.32,0.88-0.32,0.96,0l18.46,39.63c3.66,8.04,5.73,9.95,9.31,9.95C858.63,91.89,858.63,92.85,858.24,92.85z M836.11,64.35   l-7.4-15.76l-6.53,15.76H836.11z"></path>	</g>	<g>		<path class="st6" d="M204,117.19c0.27,0.17,0.32,0.25,0.34,0.59l0.27,2.57c0,0.07-0.25,0.15-0.27,0.02   c-0.66-2.64-2.87-3.58-5.66-3.58c-3.87,0-6.44,2.62-6.44,6.59c0,4.7,3.38,8.47,7.27,8.47c2.33,0,4.19-1.18,5.04-3.87   c0.02-0.12,0.29-0.05,0.29,0.02l-0.34,2.62c-0.07,0.39-0.1,0.44-0.39,0.56c-1.57,0.69-3.11,0.96-4.68,0.96   c-6.22,0-8.72-4.31-8.72-8.11c0-4.63,4.31-7.76,8.91-7.76C201.18,116.29,202.99,116.61,204,117.19z"></path>		<path class="st6" d="M214.94,124.22c0-5.31,4.65-7.94,8.62-7.94c4.83,0,7.74,3.82,7.74,7.76c0,4.56-3.94,8.11-8.6,8.11   C218.01,132.16,214.94,128.53,214.94,124.22z M229.74,124.74c0-4.63-2.84-7.91-7.2-7.91c-3.8,0-6.02,2.52-6.02,6.56   c0,4.58,2.84,8.28,7.08,8.28C227.02,131.67,229.74,129.22,229.74,124.74z"></path>		<path class="st6" d="M244.7,129.78c0,1.37,0.32,1.62,2.11,1.62h3.13c1.74,0,2.6-1.25,2.87-3.11c0-0.1,0.27-0.07,0.27,0.02   c-0.1,0.86-0.22,2.18-0.22,3.18c0,0.27-0.07,0.37-0.37,0.37h-11.27c-0.07,0-0.07-0.29,0-0.29c1.86,0,2.18-0.27,2.18-1.69v-11.34   c0-1.4-0.32-1.69-2.18-1.69c-0.07,0-0.07-0.29,0-0.29c0.78,0,1.76,0.07,2.82,0.07c1.1,0,2.08-0.07,2.84-0.07   c0.07,0,0.07,0.29,0,0.29c-1.86,0-2.18,0.32-2.18,1.71V129.78z"></path>		<path class="st6" d="M265.51,129.78c0,1.37,0.32,1.62,2.11,1.62h3.13c1.74,0,2.6-1.25,2.87-3.11c0-0.1,0.27-0.07,0.27,0.02   c-0.1,0.86-0.22,2.18-0.22,3.18c0,0.27-0.07,0.37-0.37,0.37h-11.27c-0.07,0-0.07-0.29,0-0.29c1.86,0,2.18-0.27,2.18-1.69v-11.34   c0-1.4-0.32-1.69-2.18-1.69c-0.07,0-0.07-0.29,0-0.29c0.78,0,1.76,0.07,2.82,0.07c1.1,0,2.08-0.07,2.84-0.07   c0.07,0,0.07,0.29,0,0.29c-1.86,0-2.18,0.32-2.18,1.71V129.78z"></path>		<path class="st6" d="M293.78,128.31c-0.12,0.86-0.22,2.18-0.22,3.18c0,0.27-0.1,0.37-0.39,0.37h-10.12c-0.07,0-0.07-0.29,0-0.29   c1.86,0,2.18-0.27,2.18-1.69v-11.34c0-1.4-0.32-1.69-2.18-1.69c-0.07,0-0.07-0.29,0-0.29h9.7c0.17,0,0.22,0.07,0.22,0.22   l0.05,2.96c0,0.1-0.27,0.1-0.27,0c0-1.69-0.98-2.72-2.4-2.72h-1.69c-1.81,0-2.13,0.27-2.13,1.67v4.97h3.23   c1.49,0,2.01-0.44,2.01-1.69c0-0.07,0.29-0.07,0.29,0c0,0.96-0.02,1.35-0.02,1.94c0,0.73,0.05,1.4,0.05,2.2   c0,0.07-0.29,0.07-0.29,0c0-1.47-0.54-1.98-2.11-1.98h-3.16v5.66c0,1.37,0.32,1.62,2.13,1.62h2.25c1.3,0,2.33-1.25,2.57-3.11   C293.48,128.19,293.78,128.21,293.78,128.31z"></path>		<path class="st6" d="M304.06,124.39c0-4.82,3.97-8.11,9.33-8.11c1.57,0,3.08,0.32,4.04,0.93c0.29,0.22,0.25,0.29,0.27,0.56   l0.29,2.57c0,0.07-0.27,0.15-0.29,0.02c-0.61-2.35-2.52-3.58-5.31-3.58c-4.36,0-6.81,2.57-6.81,6.73c0,4.8,3.31,8.21,7.76,8.21   c2.47,0,3.43-0.44,3.43-2.96c0-2.35-0.2-2.62-2.87-2.62c-0.2,0-0.2-0.39-0.02-0.39c2.03,0.15,3.55,0.15,5.39,0.05   c0.15,0,0.17,0.34,0,0.34c-1.22-0.02-1.32,0.27-1.32,2.87c0,1.64,0.17,1.76,0.17,2.16c0,0.2-0.05,0.22-0.27,0.29   c-1.64,0.39-3.48,0.69-5.09,0.69C307.27,132.16,304.06,128.7,304.06,124.39z"></path>		<path class="st6" d="M339.97,128.31c-0.12,0.86-0.22,2.18-0.22,3.18c0,0.27-0.1,0.37-0.39,0.37h-10.12c-0.07,0-0.07-0.29,0-0.29   c1.86,0,2.18-0.27,2.18-1.69v-11.34c0-1.4-0.32-1.69-2.18-1.69c-0.07,0-0.07-0.29,0-0.29h9.7c0.17,0,0.22,0.07,0.22,0.22   l0.05,2.96c0,0.1-0.27,0.1-0.27,0c0-1.69-0.98-2.72-2.4-2.72h-1.69c-1.81,0-2.13,0.27-2.13,1.67v4.97h3.23   c1.49,0,2.01-0.44,2.01-1.69c0-0.07,0.29-0.07,0.29,0c0,0.96-0.02,1.35-0.02,1.94c0,0.73,0.05,1.4,0.05,2.2   c0,0.07-0.29,0.07-0.29,0c0-1.47-0.54-1.98-2.11-1.98h-3.16v5.66c0,1.37,0.32,1.62,2.13,1.62h2.25c1.3,0,2.33-1.25,2.57-3.11   C339.67,128.19,339.97,128.21,339.97,128.31z"></path>		<path class="st6" d="M377.39,124.22c0-5.31,4.65-7.94,8.62-7.94c4.83,0,7.74,3.82,7.74,7.76c0,4.56-3.94,8.11-8.6,8.11   C380.45,132.16,377.39,128.53,377.39,124.22z M392.18,124.74c0-4.63-2.84-7.91-7.2-7.91c-3.8,0-6.02,2.52-6.02,6.56   c0,4.58,2.84,8.28,7.08,8.28C389.46,131.67,392.18,129.22,392.18,124.74z"></path>		<path class="st6" d="M413.82,119.74c0,0.1-0.27,0.1-0.27,0c0-1.69-0.98-2.72-2.4-2.72h-1.69c-1.76,0-2.13,0.27-2.13,1.54v5.39H410   c1.69,0,2.28-0.47,2.28-1.69c0-0.07,0.29-0.07,0.29,0c0,0.96-0.02,1.35-0.02,1.94c0,0.73,0.05,1.4,0.05,2.2   c0,0.07-0.29,0.07-0.29,0c0-1.47-0.61-1.98-2.4-1.98h-2.57v5.36c0,1.47,0.39,1.79,3.06,1.79c0.1,0,0.1,0.29,0,0.29   c-1.05,0-2.25-0.05-3.7-0.05c-1.05,0-2.06,0.05-2.84,0.05c-0.07,0-0.07-0.29,0-0.29c1.86,0,2.18-0.27,2.18-1.69v-11.34   c0-1.4-0.32-1.69-2.18-1.69c-0.07,0-0.07-0.29,0-0.29h9.7c0.17,0,0.22,0.07,0.22,0.22L413.82,119.74z"></path>		<path class="st6" d="M467.26,116.85c-1.4,0-1.91,0.61-1.91,2.28v13c0,0.07-0.22,0.1-0.29,0.05l-11.07-13.62   c-0.15-0.17-0.29-0.34-0.42-0.47v11.22c0,1.67,0.49,2.25,1.86,2.25c0.1,0,0.1,0.29,0,0.29c-0.61,0-1.27-0.05-2.08-0.05   c-0.78,0-1.52,0.05-2.16,0.05c-0.07,0-0.07-0.29,0-0.29c1.42,0,1.84-0.59,1.84-2.25v-11.73c-0.66-0.56-1.22-0.73-1.76-0.73   c-0.1,0-0.1-0.29,0-0.29c0.54,0,1.17,0.05,1.64,0.05c0.46,0,0.91-0.05,1.1-0.05c0.42,0,0.37,0.34,1.13,1.27l9.67,12.03v-10.73   c0-1.67-0.44-2.28-1.81-2.28c-0.07,0-0.07-0.29,0-0.29c0.64,0,1.3,0.07,2.11,0.07c0.76,0,1.54-0.07,2.16-0.07   C467.36,116.56,467.36,116.85,467.26,116.85z"></path>		<path class="st6" d="M487.66,116.85c-0.1,0-0.1-0.29,0-0.29c0.71,0,1.45,0.07,2.38,0.07c0.76,0,1.54-0.07,2.18-0.07   c0.07,0,0.07,0.29,0,0.29c-1.32,0-1.94,0.71-1.94,2.28v7c0,3.87-2.28,6.05-5.71,6.05c-3.65,0-5.98-2.3-5.98-5.83v-7.81   c0-1.4-0.32-1.69-2.18-1.69c-0.07,0-0.07-0.29,0-0.29c0.78,0,1.74,0.07,2.82,0.07c1.1,0,2.08-0.07,2.82-0.07   c0.1,0,0.1,0.29,0,0.29c-1.86,0-2.16,0.34-2.16,1.74v6.91c0,3.84,1.89,5.98,5.12,5.98c2.99,0,4.73-2.01,4.73-5.31v-7.03   C489.74,117.56,489.08,116.85,487.66,116.85z"></path>		<path class="st6" d="M517.2,131.86h-2.84c-0.86,0-3.33-3.04-6.59-7.98c-0.47,0.12-0.98,0.2-1.49,0.2c-0.29,0-0.73-0.02-1.05-0.05   v5.85c0,1.42,0.29,1.69,2.18,1.69c0.1,0,0.1,0.29,0,0.29c-0.78,0-1.71-0.05-2.84-0.05c-1.05,0-2.06,0.05-2.84,0.05   c-0.07,0-0.07-0.29,0-0.29c1.86,0,2.23-0.27,2.23-1.69v-11.34c0-1.4-0.32-1.69-2.18-1.69c-0.1,0-0.1-0.29,0-0.29   c0.76,0,1.74,0.07,2.79,0.07c0.83,0,2.13-0.15,2.87-0.15c2.62,0,3.99,1.18,3.99,3.06c0,1.59-1,3.06-2.5,3.87   c4.14,6.1,6.15,8.16,8.28,8.16C517.29,131.57,517.29,131.86,517.2,131.86z M506.69,123.54c2.38,0,3.36-0.93,3.36-3.16   c0-2.64-1.4-3.58-3.18-3.58c-1.2,0-1.64,0.05-1.64,1.79v4.85C505.69,123.49,506.25,123.54,506.69,123.54z"></path>		<path class="st6" d="M531.23,123.59c1.79,1.05,3.67,2.08,3.67,4.43c0,2.25-1.64,4.14-4.97,4.14c-1.1,0-2.06-0.2-3.33-0.83   c-0.17-0.1-0.2-0.24-0.22-0.46l-0.37-3.18c-0.05-0.15,0.25-0.17,0.27-0.05c0.27,1.94,1.52,4.19,4.19,4.19   c1.52,0,3.09-0.73,3.09-2.94c0-2.37-1.79-3.4-3.58-4.46c-1.74-1.03-3.48-2.03-3.48-4.33c0-2.55,2.2-3.8,4.41-3.8   c0.83,0,1.76,0.17,2.79,0.59c0.25,0.1,0.37,0.25,0.37,0.42l0.22,2.6c0,0.15-0.27,0.15-0.29,0c-0.12-1.42-1.05-3.28-3.4-3.28   c-2.13,0-2.84,1.52-2.84,2.92C527.75,121.6,529.47,122.56,531.23,123.59z"></path>		<path class="st6" d="M550.97,131.57c0.07,0,0.07,0.29,0,0.29c-0.78,0-1.71-0.05-2.87-0.05c-1.08,0-2.06,0.05-2.84,0.05   c-0.1,0-0.1-0.29,0-0.29c1.86,0,2.2-0.27,2.2-1.69v-11.34c0-1.4-0.34-1.69-2.2-1.69c-0.1,0-0.1-0.29,0-0.29   c0.78,0,1.76,0.07,2.84,0.07c1.15,0,2.11-0.07,2.87-0.07c0.07,0,0.07,0.29,0,0.29c-1.86,0-2.18,0.34-2.18,1.74v11.29   C548.79,131.3,549.08,131.57,550.97,131.57z"></path>		<path class="st6" d="M577.12,116.85c-1.4,0-1.91,0.61-1.91,2.28v13c0,0.07-0.22,0.1-0.29,0.05l-11.07-13.62   c-0.15-0.17-0.29-0.34-0.42-0.47v11.22c0,1.67,0.49,2.25,1.86,2.25c0.1,0,0.1,0.29,0,0.29c-0.61,0-1.27-0.05-2.08-0.05   c-0.78,0-1.52,0.05-2.16,0.05c-0.07,0-0.07-0.29,0-0.29c1.42,0,1.84-0.59,1.84-2.25v-11.73c-0.66-0.56-1.22-0.73-1.76-0.73   c-0.1,0-0.1-0.29,0-0.29c0.54,0,1.17,0.05,1.64,0.05c0.46,0,0.91-0.05,1.1-0.05c0.42,0,0.37,0.34,1.13,1.27l9.67,12.03v-10.73   c0-1.67-0.44-2.28-1.81-2.28c-0.07,0-0.07-0.29,0-0.29c0.64,0,1.3,0.07,2.11,0.07c0.76,0,1.54-0.07,2.16-0.07   C577.22,116.56,577.22,116.85,577.12,116.85z"></path>		<path class="st6" d="M586.8,124.39c0-4.82,3.97-8.11,9.33-8.11c1.57,0,3.08,0.32,4.04,0.93c0.29,0.22,0.25,0.29,0.27,0.56   l0.29,2.57c0,0.07-0.27,0.15-0.29,0.02c-0.61-2.35-2.52-3.58-5.31-3.58c-4.36,0-6.81,2.57-6.81,6.73c0,4.8,3.31,8.21,7.76,8.21   c2.47,0,3.43-0.44,3.43-2.96c0-2.35-0.2-2.62-2.87-2.62c-0.2,0-0.2-0.39-0.02-0.39c2.03,0.15,3.55,0.15,5.39,0.05   c0.15,0,0.17,0.34,0,0.34c-1.22-0.02-1.32,0.27-1.32,2.87c0,1.64,0.17,1.76,0.17,2.16c0,0.2-0.05,0.22-0.27,0.29   c-1.64,0.39-3.48,0.69-5.09,0.69C590,132.16,586.8,128.7,586.8,124.39z"></path>		<path class="st6" d="M649.07,119.74c0,0.1-0.27,0.1-0.27,0c0-1.69-0.98-2.72-2.4-2.72h-1.69c-1.76,0-2.13,0.27-2.13,1.54v5.39   h2.67c1.69,0,2.28-0.47,2.28-1.69c0-0.07,0.29-0.07,0.29,0c0,0.96-0.02,1.35-0.02,1.94c0,0.73,0.05,1.4,0.05,2.2   c0,0.07-0.29,0.07-0.29,0c0-1.47-0.61-1.98-2.4-1.98h-2.57v5.36c0,1.47,0.39,1.79,3.06,1.79c0.1,0,0.1,0.29,0,0.29   c-1.05,0-2.25-0.05-3.7-0.05c-1.05,0-2.06,0.05-2.84,0.05c-0.07,0-0.07-0.29,0-0.29c1.86,0,2.18-0.27,2.18-1.69v-11.34   c0-1.4-0.32-1.69-2.18-1.69c-0.07,0-0.07-0.29,0-0.29h9.7c0.17,0,0.22,0.07,0.22,0.22L649.07,119.74z"></path>		<path class="st6" d="M659.46,124.22c0-5.31,4.65-7.94,8.62-7.94c4.83,0,7.74,3.82,7.74,7.76c0,4.56-3.94,8.11-8.6,8.11   C662.52,132.16,659.46,128.53,659.46,124.22z M674.25,124.74c0-4.63-2.84-7.91-7.2-7.91c-3.8,0-6.02,2.52-6.02,6.56   c0,4.58,2.84,8.28,7.08,8.28C671.53,131.67,674.25,129.22,674.25,124.74z"></path>		<path class="st6" d="M701.41,131.86h-2.84c-0.86,0-3.33-3.04-6.59-7.98c-0.47,0.12-0.98,0.2-1.49,0.2c-0.29,0-0.73-0.02-1.05-0.05   v5.85c0,1.42,0.29,1.69,2.18,1.69c0.1,0,0.1,0.29,0,0.29c-0.78,0-1.71-0.05-2.84-0.05c-1.05,0-2.06,0.05-2.84,0.05   c-0.07,0-0.07-0.29,0-0.29c1.86,0,2.23-0.27,2.23-1.69v-11.34c0-1.4-0.32-1.69-2.18-1.69c-0.1,0-0.1-0.29,0-0.29   c0.76,0,1.74,0.07,2.79,0.07c0.83,0,2.13-0.15,2.87-0.15c2.62,0,3.99,1.18,3.99,3.06c0,1.59-1,3.06-2.5,3.87   c4.14,6.1,6.15,8.16,8.28,8.16C701.51,131.57,701.51,131.86,701.41,131.86z M690.9,123.54c2.38,0,3.36-0.93,3.36-3.16   c0-2.64-1.4-3.58-3.18-3.58c-1.2,0-1.64,0.05-1.64,1.79v4.85C689.9,123.49,690.46,123.54,690.9,123.54z"></path>		<path class="st6" d="M759.16,116.85c-1,0-1.76,0.29-2.35,1.69l-5.39,13.3c-0.05,0.12-0.47,0.12-0.54,0l-3.21-7.03l-2.84,7.03   c-0.05,0.12-0.47,0.12-0.54,0l-6.05-13.25c-0.56-1.27-1.1-1.74-2.13-1.74c-0.1,0-0.1-0.29,0-0.29c0.66,0,1.42,0.07,2.08,0.07   c1.18,0,2.01-0.07,2.74-0.07c0.1,0,0.1,0.29,0,0.29c-1.25,0-1.89,0.32-1.35,1.49l5.41,11.68l2.38-5.85l-2.55-5.58   c-0.56-1.27-1.1-1.74-2.13-1.74c-0.1,0-0.1-0.29,0-0.29c0.66,0,1.42,0.07,2.08,0.07c0.83,0,1.4-0.07,1.89-0.07   c0.1,0,0.1,0.29,0,0.29c-1.05,0-1.1,0.15-0.49,1.49l1.96,4.21l1.69-4.16c0.46-1.13,0.22-1.54-0.96-1.54c-0.07,0-0.07-0.29,0-0.29   c0.51,0,0.91,0.07,1.62,0.07c0.91,0,1.35-0.07,2.18-0.07c0.07,0,0.07,0.29,0,0.29c-1,0-1.79,0.29-2.35,1.69l-1.89,4.65l3.16,6.83   l4.73-11.63c0.47-1.13,0.05-1.54-1.79-1.54c-0.1,0-0.1-0.29,0-0.29c0.76,0,1.35,0.07,2.45,0.07c0.93,0,1.35-0.07,2.18-0.07   C759.26,116.56,759.26,116.85,759.16,116.85z"></path>		<path class="st6" d="M767.56,124.22c0-5.31,4.65-7.94,8.62-7.94c4.83,0,7.74,3.82,7.74,7.76c0,4.56-3.94,8.11-8.6,8.11   C770.62,132.16,767.56,128.53,767.56,124.22z M782.35,124.74c0-4.63-2.84-7.91-7.2-7.91c-3.8,0-6.02,2.52-6.02,6.56   c0,4.58,2.84,8.28,7.08,8.28C779.63,131.67,782.35,129.22,782.35,124.74z"></path>		<path class="st6" d="M812.72,131.86c-0.78,0-1.76-0.05-2.84-0.05c-1,0-1.86,0.05-2.55,0.05c-0.07,0-0.07-0.29,0-0.29   c1.64,0,1.96-0.27,1.89-1.69l-0.42-11.39l-5.73,13.2c-0.05,0.12-0.34,0.12-0.42,0l-5.98-13.1c0-0.02-0.02-0.02-0.02-0.05   l-0.2,10.78c-0.02,1.67,0.42,2.25,2.06,2.25c0.07,0,0.07,0.29,0,0.29c-0.71,0-1.47-0.05-2.38-0.05c-0.78,0-1.52,0.05-2.16,0.05   c-0.07,0-0.07-0.29,0-0.29c1.37,0,1.89-0.59,1.91-2.25l0.25-11.61c-0.51-0.59-1.15-0.86-1.98-0.86c-0.07,0-0.07-0.29,0-0.29   c0.49,0,1.1,0.05,1.47,0.05c0.44,0,0.88-0.05,1.08-0.05c0.44,0,0.61,0.17,1.13,1.27l5.51,11.9l5.49-12.56   c0.17-0.37,0.46-0.61,0.73-0.61c0.15,0,0.49,0.05,0.93,0.05c0.83,0,1.27-0.05,1.86-0.05c0.07,0,0.07,0.29,0,0.29   c-1.59,0-2.35,0.27-2.3,1.64l0.46,11.39c0.05,1.42,0.34,1.69,2.2,1.69C812.81,131.57,812.81,131.86,812.72,131.86z"></path>		<path class="st6" d="M832.92,128.31c-0.12,0.86-0.22,2.18-0.22,3.18c0,0.27-0.1,0.37-0.39,0.37h-10.12c-0.07,0-0.07-0.29,0-0.29   c1.86,0,2.18-0.27,2.18-1.69v-11.34c0-1.4-0.32-1.69-2.18-1.69c-0.07,0-0.07-0.29,0-0.29h9.7c0.17,0,0.22,0.07,0.22,0.22   l0.05,2.96c0,0.1-0.27,0.1-0.27,0c0-1.69-0.98-2.72-2.4-2.72h-1.69c-1.81,0-2.13,0.27-2.13,1.67v4.97h3.23   c1.49,0,2.01-0.44,2.01-1.69c0-0.07,0.29-0.07,0.29,0c0,0.96-0.02,1.35-0.02,1.94c0,0.73,0.05,1.4,0.05,2.2   c0,0.07-0.29,0.07-0.29,0c0-1.47-0.54-1.98-2.11-1.98h-3.16v5.66c0,1.37,0.32,1.62,2.13,1.62h2.25c1.3,0,2.33-1.25,2.57-3.11   C832.63,128.19,832.92,128.21,832.92,128.31z"></path>		<path class="st6" d="M859.13,116.85c-1.4,0-1.91,0.61-1.91,2.28v13c0,0.07-0.22,0.1-0.29,0.05l-11.07-13.62   c-0.15-0.17-0.29-0.34-0.42-0.47v11.22c0,1.67,0.49,2.25,1.86,2.25c0.1,0,0.1,0.29,0,0.29c-0.61,0-1.27-0.05-2.08-0.05   c-0.78,0-1.52,0.05-2.16,0.05c-0.07,0-0.07-0.29,0-0.29c1.42,0,1.84-0.59,1.84-2.25v-11.73c-0.66-0.56-1.22-0.73-1.76-0.73   c-0.1,0-0.1-0.29,0-0.29c0.54,0,1.17,0.05,1.64,0.05c0.46,0,0.91-0.05,1.1-0.05c0.42,0,0.37,0.34,1.13,1.27l9.67,12.03v-10.73   c0-1.67-0.44-2.28-1.81-2.28c-0.07,0-0.07-0.29,0-0.29c0.64,0,1.3,0.07,2.11,0.07c0.76,0,1.54-0.07,2.16-0.07   C859.22,116.56,859.22,116.85,859.13,116.85z"></path>	</g>	<g>		<g>			<path class="st6" d="M852.69,43.51c1.03,0,1.53,0.57,1.53,1.29c0,0.56-0.31,1.1-1.05,1.26l1.1,1.84h-0.69l-1.05-1.8h-0.69v1.8    h-0.57v-4.39H852.69z M852.69,43.99h-0.84v1.66h0.84c0.65,0,0.93-0.35,0.93-0.84C853.62,44.31,853.34,43.99,852.69,43.99z"></path>		</g>		<path class="st6" d="M852.77,41.98c2.06,0,3.72,1.67,3.72,3.72s-1.67,3.72-3.72,3.72c-2.06,0-3.72-1.67-3.72-3.72   S850.71,41.98,852.77,41.98 M852.77,41.46c-2.34,0-4.25,1.91-4.25,4.25s1.91,4.25,4.25,4.25c2.34,0,4.25-1.91,4.25-4.25   S855.11,41.46,852.77,41.46L852.77,41.46z"></path>	</g></g></svg>