<svg xmlns="http://www.w3.org/2000/svg" xmlns:xlink="http://www.w3.org/1999/xlink" id="Layer_1" x="0px" y="0px" viewBox="0 0 1024 1024" style="enable-background:new 0 0 1024 1024;" xml:space="preserve"><style type="text/css">	.st0{fill:url(#SVGID_1_);}	.st1{fill:url(#SVGID_2_);}	.st2{fill:url(#SVGID_3_);}	.st3{fill:url(#SVGID_4_);}	.st4{fill:url(#SVGID_5_);}	.st5{fill:url(#SVGID_6_);}	.st6{fill:url(#SVGID_7_);}	.st7{fill:url(#SVGID_8_);}	.st8{fill:#D2D1D3;}	.st9{fill:url(#SVGID_9_);}	.st10{fill:url(#SVGID_10_);}	.st11{fill:url(#SVGID_11_);}	.st12{fill:url(#SVGID_12_);}	.st13{fill:url(#SVGID_13_);}</style><g>	<g>		<linearGradient id="SVGID_1_" gradientUnits="userSpaceOnUse" x1="326.9267" y1="563.5114" x2="1014.1392" y2="563.5114">			<stop offset="0" style="stop-color:#E5A624"></stop>			<stop offset="0" style="stop-color:#E7B620"></stop>			<stop offset="0.3198" style="stop-color:#DDAD26"></stop>			<stop offset="0.6802" style="stop-color:#B67E2B"></stop>			<stop offset="1" style="stop-color:#FAF18A"></stop>		</linearGradient>		<path class="st0" d="M326.93,612.87c0,0,336.88-82.43,687.21,0c0,0-25.38-71.96-69.37-91.85   C944.76,521.02,560.21,476.78,326.93,612.87z"></path>		<linearGradient id="SVGID_2_" gradientUnits="userSpaceOnUse" x1="653.785" y1="388.9774" x2="671.2269" y2="622.1477">			<stop offset="0" style="stop-color:#468BCA"></stop>			<stop offset="1" style="stop-color:#22407B"></stop>		</linearGradient>		<path class="st1" d="M326.93,612.87c0,0,336.88-82.43,687.21,0c0,0-12.02-28.62-17.17-36.64   C996.97,576.24,635.58,488.14,326.93,612.87z"></path>		<linearGradient id="SVGID_3_" gradientUnits="userSpaceOnUse" x1="343.3477" y1="515.3029" x2="938.6996" y2="515.3029">			<stop offset="0" style="stop-color:#E5A624"></stop>			<stop offset="0" style="stop-color:#E7B620"></stop>			<stop offset="0.3198" style="stop-color:#DDAD26"></stop>			<stop offset="0.6802" style="stop-color:#B67E2B"></stop>			<stop offset="1" style="stop-color:#FAF18A"></stop>		</linearGradient>		<path class="st2" d="M343.35,589.75c0,0,266.85-174.42,595.35-82.66C938.7,507.09,592.73,312.79,343.35,589.75z"></path>		<linearGradient id="SVGID_4_" gradientUnits="userSpaceOnUse" x1="613.6611" y1="470.8943" x2="617.832" y2="482.7117">			<stop offset="0" style="stop-color:#468BCA"></stop>			<stop offset="1" style="stop-color:#22407B"></stop>		</linearGradient>		<path class="st3" d="M343.35,589.75c0,0,266.85-174.42,595.35-82.66C938.7,507.09,652.23,378.05,343.35,589.75z"></path>		<linearGradient id="SVGID_5_" gradientUnits="userSpaceOnUse" x1="579.3801" y1="343.1587" x2="586.0149" y2="358.4697">			<stop offset="0" style="stop-color:#468BCA"></stop>			<stop offset="1" style="stop-color:#22407B"></stop>		</linearGradient>		<path class="st4" d="M794.67,433.02c0,0,48.69-49.13,86.9-154c0,0-327.59-35.14-538.23,280.96c0,0,178.16-249.33,485.72-249.08   C829.07,310.9,818.63,392.84,794.67,433.02z"></path>		<linearGradient id="SVGID_6_" gradientUnits="userSpaceOnUse" x1="343.3477" y1="435.4391" x2="829.067" y2="435.4391">			<stop offset="0" style="stop-color:#E5A624"></stop>			<stop offset="0" style="stop-color:#E7B620"></stop>			<stop offset="0.3198" style="stop-color:#DDAD26"></stop>			<stop offset="0.6802" style="stop-color:#B67E2B"></stop>			<stop offset="1" style="stop-color:#FAF18A"></stop>		</linearGradient>		<path class="st5" d="M794.67,433.02c0,0,27.99-83.51,19.66-111.27c0,0-202.27-12.05-470.98,238.23   c0,0,178.48-250.22,485.72-249.08C829.07,310.9,823.59,376.36,794.67,433.02z"></path>		<linearGradient id="SVGID_7_" gradientUnits="userSpaceOnUse" x1="337.4001" y1="316.4142" x2="725.5316" y2="316.4142">			<stop offset="0" style="stop-color:#468BCA"></stop>			<stop offset="1" style="stop-color:#22407B"></stop>		</linearGradient>		<path class="st6" d="M337.4,541.83c0,0,128.24-227.06,379.78-263.97c0,0,15.78-115.83,3.95-186.85c0,0-17.76,125.28-45.38,160.79   C675.75,251.79,453.8,311.02,337.4,541.83z"></path>		<linearGradient id="SVGID_8_" gradientUnits="userSpaceOnUse" x1="337.4001" y1="316.4142" x2="721.1293" y2="316.4142">			<stop offset="0" style="stop-color:#E5A624"></stop>			<stop offset="0" style="stop-color:#E7B620"></stop>			<stop offset="0.3198" style="stop-color:#DDAD26"></stop>			<stop offset="0.6802" style="stop-color:#B67E2B"></stop>			<stop offset="1" style="stop-color:#FAF18A"></stop>		</linearGradient>		<path class="st7" d="M337.4,541.83c0,0,77.73-274.61,383.73-450.83c0,0-7.99,125.38-45.38,160.79   C675.75,251.79,443.89,321.29,337.4,541.83z"></path>		<polygon class="st8" points="326.94,318.1 326.93,318.1 326.93,318.1   "></polygon>		<linearGradient id="SVGID_9_" gradientUnits="userSpaceOnUse" x1="232.5146" y1="255.3503" x2="551.6436" y2="255.3503">			<stop offset="0" style="stop-color:#E5A624"></stop>			<stop offset="0" style="stop-color:#E7B620"></stop>			<stop offset="0.3198" style="stop-color:#DDAD26"></stop>			<stop offset="0.6802" style="stop-color:#B67E2B"></stop>			<stop offset="1" style="stop-color:#FAF18A"></stop>		</linearGradient>		<path class="st9" d="M551.64,180.45c-26.91,4.21-53.4,10.76-78.93,19.96c-48.12,17.34-93.04,43.33-132.42,77.06l-0.19,0.15   l-0.75,0.69c-5.41,4.61-10.58,9.38-15.71,14.31l-1.43,1.35l-0.07,0.03c-5.17,5.02-10.22,10.17-15.14,15.43l-0.07,0.03l-1.3,1.47   c-4.8,5.14-9.45,10.47-14.06,15.87c-0.67,0.91-1.37,1.74-1.99,2.55c-4.06,4.87-7.93,9.84-11.69,14.85   c-0.38,0.55-1.11,1.31-1.94,2.45c-16.36,22.19-30.95,46.31-43.06,72.21l0.03,0.07c-0.07,0.03-0.07,0.03-0.07,0.03   c-0.09,0.2-0.24,0.5-0.3,0.77c0.1-2.03,0.13-4.04,0.25-5.99l0.05-0.1l0.05-1.02c0.65-8.8,1.66-17.55,2.98-26.34   c7.58-51.86,25.36-101.49,52.2-146.07l0.05-0.1l0.05-0.1c1.45-2.43,3.12-4.95,4.77-7.54c1.21-1.93,2.31-3.74,3.31-5.35   c0.93-1.33,1.99-2.79,3.06-4.43c1.91-2.77,3.75-5.51,5.57-8.07c2.8-4,5.72-7.88,8.67-11.69l0.12-0.13l0.34-0.45   c3.12-4.03,6.26-7.99,9.54-11.83l0.05-0.1c34.17-40.82,77.01-74.88,127.04-99.39C490.16,115.23,523.99,145.69,551.64,180.45z"></path>		<linearGradient id="SVGID_10_" gradientUnits="userSpaceOnUse" x1="310.004" y1="768.6998" x2="629.1597" y2="768.6998">			<stop offset="0" style="stop-color:#E5A624"></stop>			<stop offset="0" style="stop-color:#E7B620"></stop>			<stop offset="0.3198" style="stop-color:#DDAD26"></stop>			<stop offset="0.6802" style="stop-color:#B67E2B"></stop>			<stop offset="1" style="stop-color:#FAF18A"></stop>		</linearGradient>		<path class="st10" d="M629.16,604.4c-0.08,0.94-0.08,1.86-0.18,2.73c-0.06,1.68-0.12,3.12-0.19,4.31   c-6.27,81.81-38.31,159.69-90.64,222.1c-34.17,40.82-77.01,74.88-127.01,99.46c-39.57-24.23-73.4-54.69-101.13-89.42   c26.91-4.21,53.3-10.81,78.83-20.01c48.12-17.34,93.14-43.28,132.52-77.01c5.06-4.4,10-8.92,14.84-13.49l1.07-0.97l0.15-0.05   l0.12-0.13c2.59-2.51,5.13-4.92,7.44-7.25l0.17-0.23l0.19-0.15l0.29-0.35c1.72-1.7,3.36-3.37,5-5.04l0.12-0.13l0.17-0.23   l0.12-0.13l0.41-0.48l0.84-0.89c0,0,0,0,0.07-0.03l0.68-0.66c1.16-1.17,2.15-2.35,3.11-3.37l0.48-0.51l0.24-0.25l0.05-0.1   l0.36-0.38l0.41-0.48l0.15-0.05l0.05-0.1l0.07-0.03l-0.03-0.07c1.21-1.27,2.27-2.48,3.33-3.69c0.56-0.53,1.21-1.27,1.95-2.2   l0.07-0.03l0.12-0.13l0.41-0.48l0.07-0.03l0.05-0.1c1.76-2.05,3.56-4.19,5.44-6.36l0.82-0.96l0.05-0.1   c0.24-0.25,1.06-1.21,1.9-2.35c1.42-1.59,2.74-3.23,4.02-4.77c0,0,0,0-0.03-0.07l0.94-1.09l0.09-0.2l0.07-0.03   c0.46-0.58,1.32-1.64,2.28-2.9c1.99-2.55,3.96-5.17,5.92-7.79l0.21-0.33l0.24-0.25l0.12-0.13c1.77-2.47,3.66-5.06,5.55-7.9   l0.12-0.13l0.05-0.1l0.12-0.13c1.6-2.24,3.13-4.45,4.52-6.62l0.07-0.03c0.05-0.1,0.12-0.13,0.17-0.23   c2.6-3.85,5.06-7.64,7.49-11.51l0.48-0.75l0.14-0.3c1.26-2.03,2.57-4.17,3.83-6.2l0.14-0.3l0.07-0.03l0.52-0.85l0.05-0.1l0.09-0.2   l0.09-0.2c1.69-2.69,3.21-5.4,4.63-7.9l-0.03-0.07c5.25-9.21,10.16-18.63,14.7-28.41L629.16,604.4z"></path>		<path class="st8" d="M301.56,844.91c-0.01,0-0.01,0-0.02,0c0,0-0.01,0-0.01,0L301.56,844.91z"></path>		<linearGradient id="SVGID_11_" gradientUnits="userSpaceOnUse" x1="9.8608" y1="550.748" x2="338.2878" y2="550.748">			<stop offset="0" style="stop-color:#E5A624"></stop>			<stop offset="0" style="stop-color:#E7B620"></stop>			<stop offset="0.3198" style="stop-color:#DDAD26"></stop>			<stop offset="0.6802" style="stop-color:#B67E2B"></stop>			<stop offset="1" style="stop-color:#FAF18A"></stop>		</linearGradient>		<path class="st11" d="M338.29,710.28c-1.68-0.06-3.44-0.09-5.15-0.22l-0.1-0.05l-1.61-0.09c-69.49-5.3-135.97-29.23-192.8-68.36   c-10.09-7-19.96-14.34-29.38-22.25l-0.35-0.29c-40.55-34.1-74.58-76.87-99.03-126.75c24.23-39.57,54.69-73.4,89.45-101.06   c4.14,26.94,10.76,53.4,19.96,78.93c17.34,48.12,43.33,93.04,77.05,132.42c20.24,23.63,43.34,45.32,69.13,64.29l0.03,0.07   c22.21,16.44,46.29,30.87,72.23,43.14C337.91,710.16,338.11,710.26,338.29,710.28z"></path>		<linearGradient id="SVGID_12_" gradientUnits="userSpaceOnUse" x1="126.0361" y1="388.229" x2="281.7569" y2="388.229">			<stop offset="0" style="stop-color:#468BCA"></stop>			<stop offset="0.6324" style="stop-color:#22407B"></stop>		</linearGradient>		<path class="st12" d="M281.76,192.06c-46.42,63.36-74.7,138.97-80.77,218.13c-2.42,31.13-1.33,62.74,3.36,94.47   c4.09,27.04,10.78,54.14,20.43,80.92l0.48,1.32c-1.55-1.77-3.22-3.41-4.68-5.13c-31.23-36.38-55.19-77.96-71.22-122.47   c-11.45-31.78-18.83-64.95-21.8-98.8c-4.74-53.07,1.52-107.45,19.57-160.26C192.22,189.49,237.63,187.01,281.76,192.06z"></path>		<linearGradient id="SVGID_13_" gradientUnits="userSpaceOnUse" x1="320.447" y1="828.7825" x2="311.0923" y2="755.5042">			<stop offset="0" style="stop-color:#468BCA"></stop>			<stop offset="1" style="stop-color:#22407B"></stop>		</linearGradient>		<path class="st13" d="M505.69,717.63c-1.69,1.53-3.44,3.15-5.13,4.68c-36.41,31.16-78.03,55.21-122.55,71.25   c-31.71,11.43-64.91,18.73-98.73,21.77c-53.03,4.64-107.48-1.59-160.18-19.6c-10.83-45.06-13.26-90.57-8.21-134.7   c63.36,46.42,138.97,74.7,218.06,80.79c31.16,2.49,62.77,1.41,94.47-3.36c27.31-4.02,54.63-10.79,81.64-20.52   C505.28,717.86,505.47,717.71,505.69,717.63z"></path>	</g></g></svg>